<svg width="22" height="22" viewBox="0 0 22 22" fill="none" xmlns="http://www.w3.org/2000/svg">
<path d="M10.8125 13.25C16.505 13.25 21.125 15.4088 21.125 18.0625V21.5H0.5V18.0625C0.5 15.4088 5.12 13.25 10.8125 13.25ZM19.75 18.0625C19.75 16.165 15.7487 14.625 10.8125 14.625C5.87625 14.625 1.875 16.165 1.875 18.0625V20.125H19.75V18.0625ZM10.8125 0.875C12.0889 0.875 13.3129 1.38203 14.2155 2.28455C15.118 3.18707 15.625 4.41115 15.625 5.6875C15.625 6.96385 15.118 8.18793 14.2155 9.09045C13.3129 9.99297 12.0889 10.5 10.8125 10.5C9.53615 10.5 8.31207 9.99297 7.40955 9.09045C6.50703 8.18793 6 6.96385 6 5.6875C6 4.41115 6.50703 3.18707 7.40955 2.28455C8.31207 1.38203 9.53615 0.875 10.8125 0.875ZM10.8125 2.25C9.90082 2.25 9.02648 2.61216 8.38182 3.25682C7.73716 3.90148 7.375 4.77582 7.375 5.6875C7.375 6.59918 7.73716 7.47352 8.38182 8.11818C9.02648 8.76284 9.90082 9.125 10.8125 9.125C11.7242 9.125 12.5985 8.76284 13.2432 8.11818C13.8878 7.47352 14.25 6.59918 14.25 5.6875C14.25 4.77582 13.8878 3.90148 13.2432 3.25682C12.5985 2.61216 11.7242 2.25 10.8125 2.25Z" fill="#4C2E30"/>
</svg>
