<svg width="71" height="72" viewBox="0 0 71 72" fill="none" xmlns="http://www.w3.org/2000/svg">
<path d="M68.0772 17.0156L68.0519 17.0409C69.5396 18.8481 70.3017 21.1443 70.1897 23.4825C70.0777 25.8207 69.0997 28.0335 67.446 29.6902C66.5735 30.5658 65.5368 31.2606 64.3952 31.7346C63.2537 32.2087 62.0298 32.4527 60.7938 32.4527C59.5577 32.4527 58.3339 32.2087 57.1923 31.7346C56.0508 31.2606 55.014 30.5658 54.1415 29.6902C52.5929 28.1481 51.6304 26.1141 51.42 23.9387L46.8657 28.496L43.2934 24.9259L47.7013 20.5201C45.6557 20.2505 43.7569 19.3112 42.3013 17.8488C41.4258 16.9762 40.7311 15.9394 40.2571 14.7977C39.7831 13.6561 39.5391 12.4321 39.5391 11.1959C39.5391 9.95974 39.7831 8.73573 40.2571 7.59408C40.7311 6.45242 41.4258 5.41558 42.3013 4.543C43.9221 2.9238 46.0776 1.95107 48.364 1.80699C50.6504 1.66291 52.9109 2.35737 54.7222 3.7603L54.7727 3.70981C58.4333 0.0235705 64.3913 0.0488187 68.0772 3.70981C68.9527 4.58239 69.6474 5.61923 70.1214 6.76089C70.5954 7.90254 70.8394 9.12655 70.8394 10.3627C70.8394 11.5989 70.5954 12.8229 70.1214 13.9645C69.6474 15.1062 68.9527 16.143 68.0772 17.0156Z" fill="#388623"/>
<path d="M6.8312 71.3752L46.5932 58.4986C57.979 54.8124 61.4377 40.3956 52.9804 31.9375L39.8526 18.8084C31.3953 10.3503 16.98 13.8345 13.2941 25.1962L0.418785 64.9621C-0.868747 68.9261 2.86762 72.6628 6.8312 71.3752Z" fill="#FF822D"/>
<path d="M26.3489 44.9149C27.5859 43.6777 27.5859 41.6831 26.3489 40.4207L12.7667 26.8372L10.5703 33.6037L21.8552 44.8896C23.0922 46.152 25.1119 46.152 26.3489 44.9149ZM16.806 56.4028C15.569 57.64 15.569 59.6346 16.806 60.897L22.2843 66.3758L29.0502 64.1792L21.2745 56.4028C20.9814 56.1089 20.6331 55.8757 20.2497 55.7166C19.8663 55.5575 19.4553 55.4756 19.0403 55.4756C18.6252 55.4756 18.2142 55.5575 17.8308 55.7166C17.4474 55.8757 17.0991 56.1089 16.806 56.4028ZM36.1442 43.8292C34.9072 42.5668 34.9072 40.5722 36.1442 39.335C37.3813 38.0979 39.3757 38.0979 40.638 39.3603L54.3464 53.07C53.0841 54.7364 51.4684 56.1503 49.5497 57.236L36.1442 43.8292Z" fill="#FF6723"/>
</svg>
