<svg width="31" height="27" viewBox="0 0 31 27" fill="none" xmlns="http://www.w3.org/2000/svg">
<path d="M8.85265 0.802734L8.5813 2.0918H10.7609L10.4894 0.802734H8.85265ZM9.091 3.25195V4.1543H10.2512V3.25195H9.091ZM7.11132 5.31445L6.60988 11.373H7.71493L8.10164 6.2168H16.5157L16.3868 5.31445H7.11132ZM26.6223 6.79688V11.6052C27.0095 11.6351 27.3963 11.6709 27.7824 11.7126V6.79688H26.6223ZM9.17801 7.37695L8.87824 11.373H9.2843C9.92902 11.373 10.544 11.6489 11.1534 12.0592V7.37695H9.17801ZM12.3137 7.37695V12.8078L17.341 13.3673V11.9947L16.6813 7.37695H12.3137ZM4.51483 12.5332C3.9992 12.5332 3.01359 12.9688 2.10576 13.6951C1.40271 14.2575 0.735877 14.9771 0.25293 15.7038L1.33658 15.9747C2.62693 14.3524 4.61583 13.3066 6.83508 13.3066C10.096 13.3066 12.8602 15.564 13.6404 18.5918H14.9558C14.3673 17.384 13.4685 16 12.4858 14.8607C11.8845 14.1634 11.2571 13.5594 10.6847 13.1462C10.1123 12.7329 9.5967 12.5332 9.28436 12.5332H4.51483ZM18.5012 12.537V19.623H20.5733C21.1589 17.6795 22.2617 16.3507 23.7396 15.679C24.533 15.3183 25.4145 15.1437 26.3651 15.1261C27.0998 15.1124 27.8763 15.1937 28.6848 15.3543V13.0024C27.9439 12.8876 27.068 12.7975 26.1303 12.7315C23.5388 12.549 20.577 12.5381 18.5012 12.537ZM29.8449 13.234V14.4668H30.7473V13.6025C30.4909 13.4286 30.1088 13.3056 29.8449 13.234ZM13.3538 14.0909L13.3644 14.1029C14.6532 15.5971 15.8035 17.428 16.3992 18.9618L16.7061 19.752H13.836C13.852 19.9434 13.8605 20.1367 13.8605 20.332C13.8605 20.7947 13.8146 21.2471 13.728 21.6855H17.341V14.5348L13.3538 14.0909ZM6.83514 14.4668C3.60726 14.4668 0.969906 17.1042 0.969906 20.332C0.969906 23.5598 3.60726 26.1973 6.83514 26.1973C10.063 26.1973 12.7004 23.5598 12.7004 20.332C12.7004 17.1042 10.063 14.4668 6.83514 14.4668ZM29.8449 15.627V16.5293H30.7473V15.627H29.8449ZM6.83514 15.8848C9.29467 15.8848 11.2824 17.8725 11.2824 20.332C11.2824 22.7916 9.29467 24.7793 6.83514 24.7793C4.37554 24.7793 2.38788 22.7916 2.38788 20.332C2.38788 17.8725 4.37554 15.8848 6.83514 15.8848ZM26.6611 16.2889C25.8301 16.2995 24.897 16.4348 24.2197 16.7351C23.1344 17.2284 22.3071 18.1237 21.7904 19.623H22.4717C23.3699 18.1588 24.9861 17.1738 26.8156 17.1738C27.456 17.174 28.0904 17.2965 28.6848 17.5348V16.5391C27.9638 16.3834 27.2872 16.2991 26.6611 16.2889ZM6.83514 17.0449C4.99255 17.0449 3.54803 18.4895 3.54803 20.332C3.54803 22.1746 4.99255 23.6191 6.83514 23.6191C8.67766 23.6191 10.1222 22.1746 10.1222 20.332C10.1222 18.4895 8.67766 17.0449 6.83514 17.0449ZM29.8449 17.6895V18.1838C30.1793 18.4334 30.4823 18.7224 30.7473 19.0447V17.6895H29.8449ZM26.8156 18.334C24.6569 18.334 22.884 20.107 22.884 22.2656C22.884 24.4243 24.6569 26.1973 26.8156 26.1973C28.9743 26.1973 30.7473 24.4243 30.7473 22.2656C30.7473 20.107 28.9743 18.334 26.8156 18.334ZM26.8156 19.752C28.2024 19.752 29.3293 20.8789 29.3293 22.2656C29.3293 23.6524 28.2024 24.7793 26.8156 24.7793C25.4288 24.7793 24.3019 23.6524 24.3019 22.2656C24.3019 20.8789 25.4288 19.752 26.8156 19.752ZM18.5012 20.7832V21.7743L21.7245 22.3115C21.7243 22.2962 21.7238 22.281 21.7238 22.2656C21.7238 21.7508 21.8024 21.2531 21.9471 20.7832H18.5012ZM26.8156 20.9121C26.0361 20.9121 25.4621 21.4861 25.4621 22.2656C25.4621 23.0452 26.0361 23.6191 26.8156 23.6191C27.5951 23.6191 28.1691 23.0452 28.1691 22.2656C28.1691 21.4861 27.5951 20.9121 26.8156 20.9121Z" fill="#4C2E30"/>
</svg>
