<svg width="22" height="22" viewBox="0 0 22 22" fill="none" xmlns="http://www.w3.org/2000/svg">
<g clip-path="url(#clip0_398_382)">
<path d="M11.9101 9.6392L10.8923 11.7585C10.8923 11.7585 10.8235 13.1899 9.98895 14.8806C9.18504 16.5098 8.39281 17.1766 8.1505 17.4206C7.9082 17.6646 7.41462 17.8923 7.82016 18.2294C8.2257 18.5665 9.0408 18.8144 9.4345 18.8311C9.82772 18.8491 10.2767 18.2368 10.4396 17.9824C10.841 17.3521 11.435 16.0926 11.7031 14.7206C11.91 13.6666 12.1865 11.8275 12.1865 11.8275L11.9101 9.6392Z" fill="#438928"/>
<path d="M11.9636 9.27734C11.9636 9.27734 13.1116 7.90395 14.7577 7.17844C16.335 6.48378 17.6208 6.56996 18.5745 6.82777C19.6258 7.11176 20.0285 7.2913 20.1497 7.48484C20.271 7.67839 20.1306 7.8474 20.064 8.02049C19.5851 9.25698 18.9813 10.8664 16.9432 11.7322C14.7681 12.6546 13.5563 12.4847 12.3032 12.117C11.0517 11.7485 11.4119 11.2564 11.4119 11.2564L11.9636 9.27734Z" fill="#438928"/>
<path d="M4.86553 5.23287C4.73416 5.43025 4.83848 8.41935 6.70765 10.11C8.7195 11.9317 11.2962 11.9841 11.2962 11.9841L12.4082 9.78526L11.964 9.27739C11.964 9.27739 11.3136 7.48774 10.1949 6.46844C9.03524 5.41182 7.50982 4.74355 6.23093 4.87556C5.42853 4.95938 4.93562 5.12843 4.86553 5.23287Z" fill="#438928"/>
<path d="M15.0098 8.50239C13.3873 9.35141 12.3025 10.4324 12.1057 10.7498C11.9088 11.0672 12.1039 11.1304 12.2699 11.0295C12.5693 10.8472 13.7279 9.9281 15.1915 9.19938C16.4582 8.56993 18.209 8.04491 18.4945 7.89676C18.672 7.80465 18.6128 7.57335 18.3991 7.57936C18.1859 7.58418 16.669 7.63406 15.0098 8.50239ZM9.1945 7.54299C7.82033 6.33979 6.62031 5.93611 6.34901 5.91858C6.0777 5.90106 5.98287 6.16685 6.25227 6.31666C6.52168 6.46647 7.63028 7.05367 8.86597 8.16602C10.1844 9.35467 10.9426 10.6451 11.09 10.8384C11.2363 11.0312 11.4552 10.8545 11.3683 10.5803C11.3007 10.373 10.7102 8.86984 9.1945 7.54299Z" fill="#E6DC9F"/>
</g>
<defs>
<clipPath id="clip0_398_382">
<rect width="16.2549" height="16.2549" fill="white" transform="translate(6.29199 0.733582) rotate(22.2157)"/>
</clipPath>
</defs>
</svg>
