<svg width="21" height="19" viewBox="0 0 21 19" fill="none" xmlns="http://www.w3.org/2000/svg">
<path d="M5.6361 5.4283L7.55179 7.41709M7.55179 7.41709C8.34522 5.98974 9.61289 4.91184 11.1172 4.38548M7.55179 7.41709C6.87632 8.62966 6.58403 10.0326 6.71603 11.4266M12.7897 11.1917L6.28128 17.9484M11.1172 4.38548C11.7831 4.15335 12.4812 4.0357 13.1837 4.03718H16.2161C17.429 4.03718 18.0355 4.03718 18.499 4.28243C18.906 4.4978 19.2375 4.84197 19.4449 5.26446C19.6812 5.74569 19.6812 6.3753 19.6812 7.63452V10.7826C19.6809 12.5156 19.0382 14.182 17.8863 15.4363C16.7344 16.6905 15.1616 17.4364 13.4943 17.5192C11.8269 17.6021 10.1927 17.0155 8.93072 15.8811C7.66871 14.7468 6.87567 13.1517 6.71603 11.4266M11.1172 4.38548C10.7609 3.37665 10.1148 2.50575 9.26624 1.89056C8.41767 1.27537 7.40759 0.945584 6.3726 0.945801H4.01223C3.06928 0.945801 2.5978 0.945801 2.23749 1.13644C1.92047 1.3043 1.66269 1.57192 1.501 1.90104C1.31836 2.2751 1.31836 2.76456 1.31836 3.7435V6.19188C1.3181 6.91104 1.4603 7.62258 1.73613 8.28227C2.01195 8.94197 2.41551 9.53573 2.92172 10.0267C3.42794 10.5176 4.02599 10.8952 4.67872 11.136C5.33146 11.3769 6.02492 11.4758 6.71603 11.4266" stroke="#F5F5F5" stroke-width="1.70026" stroke-linecap="round" stroke-linejoin="round"/>
</svg>
