<svg width="71" height="72" viewBox="0 0 71 72" fill="none" xmlns="http://www.w3.org/2000/svg">
<path d="M66.2962 38.9068C66.2962 38.9068 67.2404 31.7008 65.5231 28.4428C63.8058 25.1849 58.5048 17.9899 47.5108 16.6923C41.6797 16.0076 37.7315 16.7806 34.1313 17.2058C31.8507 17.4764 27.6044 16.0738 19.9787 17.8077C14.3243 19.0943 5.74332 24.0695 2.95478 34.793C1.48596 40.4419 2.04367 46.5435 4.54508 51.6844C9.34911 61.5465 18.2669 63.9485 18.2669 63.9485L36.1909 65.4063L57.8919 56.2289L66.2962 38.9068Z" fill="#C30D23"/>
<path d="M45.4555 66.3506C56.8637 64.1198 66.7258 53.9153 68.4431 43.109C70.0499 32.9985 64.1415 26.2231 64.1415 26.2231C64.1415 26.2231 64.8152 31.618 63.5562 37.3663C62.2033 43.5177 58.2883 53.7718 45.8862 59.5808C30.6624 66.7095 13.9863 62.0104 13.9863 62.0104C13.9863 62.0104 25.3172 70.2877 45.4555 66.3506Z" fill="#DC0D27"/>
<path d="M13.92 29.7294C10.8885 28.9453 7.10603 31.2369 6.55936 37.946C6.05687 44.0918 9.38656 51.4966 12.65 50.6131C15.422 49.8622 12.7549 44.7268 13.7433 40.5136C14.7428 36.3004 18.5418 30.9277 13.92 29.7294Z" fill="#FED3B0"/>
<path d="M17.7577 26.0242C17.327 26.5819 18.3265 29.0336 23.4011 29.0005C28.4701 28.9674 29.3205 27.4378 31.579 28.1225C33.8374 28.8072 35.5989 31.524 38.0948 33.0094C41.5846 35.0856 46.6205 34.5555 46.5874 33.6333C46.5543 32.7057 45.3229 33.1806 44.2627 31.8829C43.2025 30.5798 41.3251 27.1396 41.3251 27.1396C41.3251 27.1396 41.8496 25.5272 42.9595 25.588C45.5217 25.726 48.371 25.218 49.9392 24.2351C51.8166 23.0645 52.5234 21.2588 52.1811 20.8447C51.8387 20.4361 50.773 21.5404 50.1932 21.4355C49.6134 21.3306 45.842 21.4024 45.842 21.4024L41.2864 20.6625C41.2864 20.6625 41.9104 17.9954 43.1418 16.626C44.3731 15.2565 46.3058 13.3736 46.2671 13.1361C46.2285 12.8987 44.6768 13.1085 44.6768 13.1085L39.8783 15.3007L36.521 19.7182L30.1488 20.541L24.014 16.4272C24.014 16.4272 20.4966 13.5889 20.3364 13.6552C19.4474 14.0196 20.8003 15.3725 21.8218 17.007C22.7053 18.4261 22.8875 19.1384 24.0803 20.1268C25.2454 21.0876 27.2001 22.0429 27.2001 22.0429L25.7976 24.5775C25.7976 24.5775 21.2751 26.361 20.4855 26.361C19.7014 26.3666 17.9951 25.7205 17.7577 26.0242Z" fill="#BDCF44"/>
<path d="M31.9168 24.4945C33.7667 24.6325 35.103 27.0898 36.7706 28.7629C39.2057 31.198 41.1108 32.4681 43.1594 32.9485C44.1864 33.1859 46.5443 33.578 46.5443 33.578C46.5443 33.578 46.8866 33.3405 45.7215 32.6889C44.5564 32.0374 43.8551 30.7894 43.684 30.2096C43.5128 29.6298 42.9772 27.7248 41.8507 26.1455C40.7242 24.5663 39.4432 23.8981 39.8518 23.1803C40.2604 22.4624 43.7944 23.6772 47.1959 23.1306C51.6852 22.4127 52.3699 20.9715 52.1656 20.8004C51.9612 20.6292 49.1837 21.4519 47.7812 21.1427C46.3786 20.8335 45.1749 19.8727 43.0545 19.8727C41.6077 19.8727 40.1941 20.3973 39.8131 19.6076C39.4929 18.945 40.6966 16.7307 41.6133 15.8969C43.8386 13.8759 46.2406 13.3955 46.2406 13.1194C46.2406 12.5507 42.3366 12.2304 39.6309 14.3895C36.9362 16.5375 37.4442 19.3591 33.9434 19.3591C32.7783 19.3591 32.331 19.083 32.331 19.083C32.331 19.083 30.7683 17.7965 28.681 16.6645C26.5938 15.5325 25.02 16.035 23.8163 15.4552C22.618 14.8754 20.4921 13.3734 20.2878 13.6771C20.0835 13.9808 21.8836 16.035 24.1476 17.7136C26.4115 19.3923 28.9461 20.2482 28.2227 20.9329C27.5049 21.6176 26.3066 22.0649 25.1746 22.9208C24.0426 23.7766 23.0487 25.008 21.6793 25.4553C20.3099 25.9026 18.0569 25.5878 17.7477 25.9633C17.4385 26.3388 20.1332 27.6364 24.3464 26.8523C28.5485 26.0682 28.5595 24.246 31.9168 24.4945Z" fill="#94A61D"/>
<path d="M36.1187 3.32383C35.1965 3.27965 34.0314 4.00854 34.0314 4.00854C34.0314 4.00854 32.3417 6.0682 31.6736 11.1815C31.3644 13.5448 31.7012 16.7199 31.6349 18.4703C31.5687 20.2152 31.1877 20.8668 31.2926 21.7614C31.3975 22.6504 32.3307 23.6554 34.4897 23.6333C36.2236 23.6167 37.1182 22.2749 37.085 21.7945C37.0519 21.3141 35.5665 16.4162 35.9862 12.0981C36.3782 8.08369 37.8415 5.3117 37.9023 4.73191C37.9354 4.41716 37.5213 3.39009 36.1187 3.32383Z" fill="#728035"/>
</svg>
