<svg width="72" height="72" viewBox="0 0 72 72" fill="none" xmlns="http://www.w3.org/2000/svg">
<path d="M34.8259 5.66531L34.826 5.66532L34.8274 5.6629C36.6558 2.66114 40.1909 0.852016 43.9264 0.852016H44.0352C45.4186 0.852016 46.5215 1.8999 46.5215 3.14411C46.5215 4.38833 45.4186 5.43621 44.0352 5.43621H43.8992C41.9252 5.43621 40.0796 6.37889 39.0812 7.96813L39.0812 7.96813L39.0801 7.96995C38.1654 9.45621 38.1383 11.2359 38.9647 12.7706L38.9644 12.7707L38.9708 12.7813L44.5629 21.9547L40.2661 24.2279L34.6119 14.941C32.9432 11.987 33.0231 8.54561 34.8259 5.66531Z" fill="url(#paint0_radial_308_755)" stroke="url(#paint1_linear_308_755)" stroke-width="0.464286"/>
<path d="M43.737 25.9912C41.6557 27.9237 38.8294 29.0122 35.8791 29.0122C32.9288 29.0122 30.1025 27.9237 28.0212 25.9912C25.9405 24.0591 24.7751 21.4426 24.7751 18.7182C24.7751 15.9939 25.9405 13.3773 28.0212 11.4453C30.1025 9.51269 32.9288 8.42428 35.8791 8.42428C38.8294 8.42428 41.6557 9.51269 43.737 11.4453C45.8177 13.3773 46.9831 15.9939 46.9831 18.7182C46.9831 21.4426 45.8177 24.0591 43.737 25.9912Z" fill="#A8C245" stroke="url(#paint2_linear_308_755)" stroke-width="0.464286"/>
<path d="M10.7325 13.4731H10.7327H18.2901C22.8809 13.4731 26.5396 16.9186 26.5396 21.1166L26.5396 60.7472L26.5396 60.7484C26.5466 62.0985 26.2663 63.4371 25.7142 64.6874C25.1621 65.9377 24.3489 67.0757 23.3204 68.0353C22.2918 68.995 21.0683 69.7573 19.7196 70.2778C18.3709 70.7982 16.9243 71.0664 15.4628 71.0663C9.69653 71.0663 4.8889 66.9536 4.38501 61.6591L0.796668 23.4933C0.796661 23.4932 0.796654 23.4932 0.796647 23.4931C0.679314 22.2206 0.848048 20.9392 1.29254 19.7297C1.73708 18.5202 2.44801 17.4083 3.38129 16.4653C4.31462 15.5222 5.4499 14.7685 6.71562 14.2531C7.98136 13.7376 9.34929 13.4719 10.7325 13.4731Z" fill="url(#paint3_linear_308_755)" stroke="url(#paint4_linear_308_755)" stroke-width="0.464286"/>
<path d="M10.7325 13.4731H10.7327H18.2901C22.8809 13.4731 26.5396 16.9186 26.5396 21.1166L26.5396 60.7472L26.5396 60.7484C26.5466 62.0985 26.2663 63.4371 25.7142 64.6874C25.1621 65.9377 24.3489 67.0757 23.3204 68.0353C22.2918 68.995 21.0683 69.7573 19.7196 70.2778C18.3709 70.7982 16.9243 71.0664 15.4628 71.0663C9.69653 71.0663 4.8889 66.9536 4.38501 61.6591L0.796668 23.4933C0.796661 23.4932 0.796654 23.4932 0.796647 23.4931C0.679314 22.2206 0.848048 20.9392 1.29254 19.7297C1.73708 18.5202 2.44801 17.4083 3.38129 16.4653C4.31462 15.5222 5.4499 14.7685 6.71562 14.2531C7.98136 13.7376 9.34929 13.4719 10.7325 13.4731Z" fill="url(#paint5_linear_308_755)" stroke="url(#paint6_linear_308_755)" stroke-width="0.464286"/>
<path d="M10.7325 13.4731H10.7327H18.2901C22.8809 13.4731 26.5396 16.9186 26.5396 21.1166L26.5396 60.7472L26.5396 60.7484C26.5466 62.0985 26.2663 63.4371 25.7142 64.6874C25.1621 65.9377 24.3489 67.0757 23.3204 68.0353C22.2918 68.995 21.0683 69.7573 19.7196 70.2778C18.3709 70.7982 16.9243 71.0664 15.4628 71.0663C9.69653 71.0663 4.8889 66.9536 4.38501 61.6591L0.796668 23.4933C0.796661 23.4932 0.796654 23.4932 0.796647 23.4931C0.679314 22.2206 0.848048 20.9392 1.29254 19.7297C1.73708 18.5202 2.44801 17.4083 3.38129 16.4653C4.31462 15.5222 5.4499 14.7685 6.71562 14.2531C7.98136 13.7376 9.34929 13.4719 10.7325 13.4731Z" fill="url(#paint7_radial_308_755)" stroke="url(#paint8_linear_308_755)" stroke-width="0.464286"/>
<path d="M70.9344 23.5183L70.9345 23.5172C71.0597 22.2441 70.8975 20.9605 70.4578 19.7482C70.0182 18.5358 69.3105 17.4207 68.379 16.4745C67.4474 15.5283 66.3124 14.772 65.046 14.2548C63.7797 13.7376 62.4104 13.4712 61.0259 13.4731L61.0256 13.4731L53.4682 13.4731C48.8774 13.4731 45.2186 16.9186 45.2186 21.1166V60.7472V60.7484C45.2116 62.0985 45.4919 63.4371 46.044 64.6874C46.5961 65.9377 47.4093 67.0757 48.4378 68.0353C49.4664 68.995 50.69 69.7573 52.0386 70.2778C53.3873 70.7983 54.834 71.0664 56.2954 71.0663C62.0615 71.0663 66.8691 66.9538 67.3732 61.6596L70.9344 23.5183ZM70.9344 23.5183L67.3732 61.6591L70.9344 23.5183Z" fill="url(#paint9_linear_308_755)" stroke="url(#paint10_linear_308_755)" stroke-width="0.464286"/>
<path d="M70.9344 23.5183L70.9345 23.5172C71.0597 22.2441 70.8975 20.9605 70.4578 19.7482C70.0182 18.5358 69.3105 17.4207 68.379 16.4745C67.4474 15.5283 66.3124 14.772 65.046 14.2548C63.7797 13.7376 62.4104 13.4712 61.0259 13.4731L61.0256 13.4731L53.4682 13.4731C48.8774 13.4731 45.2186 16.9186 45.2186 21.1166V60.7472V60.7484C45.2116 62.0985 45.4919 63.4371 46.044 64.6874C46.5961 65.9377 47.4093 67.0757 48.4378 68.0353C49.4664 68.995 50.69 69.7573 52.0386 70.2778C53.3873 70.7983 54.834 71.0664 56.2954 71.0663C62.0615 71.0663 66.8691 66.9538 67.3732 61.6596L70.9344 23.5183ZM70.9344 23.5183L67.3732 61.6591L70.9344 23.5183Z" fill="url(#paint11_linear_308_755)" stroke="url(#paint12_linear_308_755)" stroke-width="0.464286"/>
<path d="M70.9344 23.5183L70.9345 23.5172C71.0597 22.2441 70.8975 20.9605 70.4578 19.7482C70.0182 18.5358 69.3105 17.4207 68.379 16.4745C67.4474 15.5283 66.3124 14.772 65.046 14.2548C63.7797 13.7376 62.4104 13.4712 61.0259 13.4731L61.0256 13.4731L53.4682 13.4731C48.8774 13.4731 45.2186 16.9186 45.2186 21.1166V60.7472V60.7484C45.2116 62.0985 45.4919 63.4371 46.044 64.6874C46.5961 65.9377 47.4093 67.0757 48.4378 68.0353C49.4664 68.995 50.69 69.7573 52.0386 70.2778C53.3873 70.7983 54.834 71.0664 56.2954 71.0663C62.0615 71.0663 66.8691 66.9538 67.3732 61.6596L70.9344 23.5183ZM70.9344 23.5183L67.3732 61.6591L70.9344 23.5183Z" fill="url(#paint13_linear_308_755)" stroke="url(#paint14_linear_308_755)" stroke-width="0.464286"/>
<path d="M70.9344 23.5183L70.9345 23.5172C71.0597 22.2441 70.8975 20.9605 70.4578 19.7482C70.0182 18.5358 69.3105 17.4207 68.379 16.4745C67.4474 15.5283 66.3124 14.772 65.046 14.2548C63.7797 13.7376 62.4104 13.4712 61.0259 13.4731L61.0256 13.4731L53.4682 13.4731C48.8774 13.4731 45.2186 16.9186 45.2186 21.1166V60.7472V60.7484C45.2116 62.0985 45.4919 63.4371 46.044 64.6874C46.5961 65.9377 47.4093 67.0757 48.4378 68.0353C49.4664 68.995 50.69 69.7573 52.0386 70.2778C53.3873 70.7983 54.834 71.0664 56.2954 71.0663C62.0615 71.0663 66.8691 66.9538 67.3732 61.6596L70.9344 23.5183ZM70.9344 23.5183L67.3732 61.6591L70.9344 23.5183Z" fill="url(#paint15_radial_308_755)" stroke="url(#paint16_linear_308_755)" stroke-width="0.464286"/>
<path d="M35.8793 71.0663C26.9928 71.0663 19.8005 64.3642 19.8005 56.153V22.7069C19.8005 17.6258 24.2471 13.4731 29.7627 13.4731H41.9959C47.5115 13.4731 51.9581 17.6258 51.9581 22.7069V56.153C51.9581 64.3642 44.7658 71.0663 35.8793 71.0663Z" fill="url(#paint17_linear_308_755)" stroke="url(#paint18_linear_308_755)" stroke-width="0.464286"/>
<g filter="url(#filter0_f_308_755)">
<path d="M49.3889 16.2405C50.9673 16.8449 52.858 18.4564 54.3883 22.1301C56.0084 26.0193 57.2154 32.2011 57.2154 41.8811C57.2154 48.9843 57.1664 52.0054 57.1405 53.6026C57.1151 55.1658 57.1119 55.365 57.1984 56.6923C56.9404 56.6972 56.6813 56.765 56.4265 56.8726C56.0763 57.0203 55.7203 57.2489 55.3653 57.5172C54.8807 57.8834 54.3739 58.343 53.8702 58.7999C53.6423 59.0067 53.4149 59.2129 53.1906 59.4096C52.4551 60.0545 51.7488 60.6004 51.0916 60.8336C50.768 60.9484 50.4685 60.9826 50.1895 60.924C49.9126 60.8659 49.6346 60.7118 49.3594 60.4132C49.2388 60.2819 49.1131 60.0564 48.9907 59.7228C48.8697 59.3929 48.758 58.9747 48.6564 58.4737C48.453 57.4718 48.2935 56.1589 48.1743 54.6013C47.9361 51.4873 47.8606 47.4183 47.9111 42.9527C48.0106 34.1363 48.6004 23.7928 49.3889 16.2405Z" fill="url(#paint19_linear_308_755)" stroke="url(#paint20_linear_308_755)" stroke-width="0.464286"/>
</g>
<g filter="url(#filter1_f_308_755)">
<path d="M16.7003 21.2447L16.7003 21.2447C18.2184 18.5987 20.9371 17.1571 22.572 16.4281L25.0851 66.0827C24.4561 65.8888 23.7252 65.7316 22.9614 65.5674C22.923 65.5592 22.8846 65.5509 22.8461 65.5426C21.8972 65.3385 20.8941 65.1184 19.9314 64.7993C18.0052 64.1609 16.2882 63.1418 15.5255 61.1197C15.4612 60.9488 15.3982 60.6514 15.341 60.2265C15.2845 59.8067 15.2356 59.2783 15.1942 58.6554C15.1114 57.4099 15.0592 55.7968 15.0341 53.9389C14.9839 50.2235 15.0424 45.5385 15.1804 40.8769C15.3185 36.2151 15.5361 31.5795 15.8039 27.9628C15.9379 26.154 16.0841 24.6029 16.2389 23.4318C16.3164 22.846 16.3955 22.3586 16.4756 21.9831C16.5575 21.5986 16.6354 21.3578 16.7003 21.2447Z" fill="url(#paint21_linear_308_755)" stroke="url(#paint22_linear_308_755)" stroke-width="0.464286"/>
</g>
<path d="M35.8793 71.0663C26.9928 71.0663 19.8005 64.3642 19.8005 56.153V22.7069C19.8005 17.6258 24.2471 13.4731 29.7627 13.4731H41.9959C47.5115 13.4731 51.9581 17.6258 51.9581 22.7069V56.153C51.9581 64.3642 44.7658 71.0663 35.8793 71.0663Z" fill="url(#paint23_linear_308_755)" stroke="url(#paint24_linear_308_755)" stroke-width="0.464286"/>
<path d="M34.8259 5.66531L34.826 5.66532L34.8274 5.6629C36.6558 2.66114 40.1909 0.852016 43.9264 0.852016H44.0352C45.4186 0.852016 46.5215 1.8999 46.5215 3.14411C46.5215 4.38833 45.4186 5.43621 44.0352 5.43621H43.8992C41.9252 5.43621 40.0796 6.37889 39.0812 7.96813L39.0812 7.96813L39.0801 7.96995C38.1654 9.45621 38.1383 11.2359 38.9647 12.7706L38.9644 12.7707L38.9708 12.7813L44.5629 21.9547L40.2661 24.2279L34.6119 14.941C32.9432 11.987 33.0231 8.54561 34.8259 5.66531Z" fill="url(#paint25_radial_308_755)" stroke="url(#paint26_linear_308_755)" stroke-width="0.464286"/>
<path d="M43.737 25.9917C41.6557 27.9242 38.8294 29.0126 35.8791 29.0126C32.9288 29.0126 30.1025 27.9242 28.0212 25.9917C25.9405 24.0596 24.7751 21.443 24.7751 18.7187C24.7751 15.9944 25.9405 13.3778 28.0212 11.4458C30.1025 9.51318 32.9288 8.42477 35.8791 8.42477C38.8294 8.42477 41.6557 9.51318 43.737 11.4458C45.8177 13.3778 46.9831 15.9944 46.9831 18.7187C46.9831 21.443 45.8177 24.0596 43.737 25.9917Z" fill="url(#paint27_radial_308_755)" stroke="url(#paint28_linear_308_755)" stroke-width="0.464286"/>
<path d="M10.7325 13.4732H10.7327H18.2901C22.8809 13.4732 26.5396 16.9187 26.5396 21.1167L26.5396 60.7473L26.5396 60.7485C26.5466 62.0986 26.2663 63.4372 25.7142 64.6875C25.1621 65.9379 24.3489 67.0758 23.3204 68.0354C22.2918 68.9951 21.0683 69.7574 19.7196 70.2779C18.3709 70.7984 16.9243 71.0665 15.4628 71.0665C9.69653 71.0665 4.8889 66.9537 4.38501 61.6593L0.796668 23.4934C0.796661 23.4934 0.796654 23.4933 0.796647 23.4932C0.679314 22.2208 0.848048 20.9393 1.29254 19.7299C1.73708 18.5203 2.44801 17.4085 3.38129 16.4654C4.31462 15.5223 5.4499 14.7687 6.71562 14.2532C7.98136 13.7377 9.34929 13.472 10.7325 13.4732Z" fill="url(#paint29_radial_308_755)" stroke="url(#paint30_linear_308_755)" stroke-width="0.464286"/>
<path d="M70.9344 23.5184L70.9345 23.5173C71.0597 22.2442 70.8975 20.9606 70.4578 19.7483C70.0182 18.5359 69.3105 17.4208 68.379 16.4746C67.4474 15.5284 66.3124 14.7721 65.046 14.2549C63.7797 13.7377 62.4104 13.4714 61.0259 13.4732L61.0256 13.4732L53.4682 13.4732C48.8774 13.4732 45.2186 16.9187 45.2186 21.1167V60.7473V60.7485C45.2116 62.0986 45.4919 63.4372 46.044 64.6875C46.5961 65.9379 47.4093 67.0758 48.4378 68.0354C49.4664 68.9951 50.69 69.7574 52.0386 70.2779C53.3873 70.7984 54.834 71.0665 56.2954 71.0665C62.0615 71.0665 66.8691 66.9539 67.3732 61.6597L70.9344 23.5184ZM70.9344 23.5184L67.3732 61.6593L70.9344 23.5184Z" fill="url(#paint31_radial_308_755)" stroke="url(#paint32_linear_308_755)" stroke-width="0.464286"/>
<path d="M35.8793 71.0664C26.9928 71.0664 19.8005 64.3643 19.8005 56.1532V22.707C19.8005 17.6259 24.2471 13.4732 29.7627 13.4732H41.9959C47.5115 13.4732 51.9581 17.6259 51.9581 22.707V56.1532C51.9581 64.3643 44.7658 71.0664 35.8793 71.0664Z" fill="url(#paint33_radial_308_755)" stroke="url(#paint34_linear_308_755)" stroke-width="0.464286"/>
<g filter="url(#filter2_f_308_755)">
<path d="M33.2254 23.9863C30.767 22.0435 27.9417 19.6809 26.0397 18.0536C26.2583 17.5851 26.6649 16.9398 27.2471 16.3799C27.8941 15.7577 28.7442 15.2533 29.7835 15.1943C31.9778 15.0697 40.2183 15.1428 44.1741 15.1933L45.6848 16.8766C44.5266 18.6092 42.8008 21.1405 41.2615 23.2915C40.4691 24.3988 39.7279 25.4029 39.1397 26.1448C38.8452 26.5162 38.5917 26.8186 38.3908 27.0345C38.2902 27.1426 38.2058 27.2258 38.1383 27.284C38.1046 27.3131 38.0775 27.3339 38.0567 27.3479C38.0509 27.3519 38.046 27.3549 38.0421 27.3573C38.0257 27.3547 37.9997 27.3484 37.9626 27.3355C37.8812 27.3073 37.7704 27.2561 37.6295 27.1793C37.3489 27.0265 36.9767 26.7879 36.5315 26.479C35.6426 25.8624 34.4836 24.9806 33.2254 23.9863Z" fill="url(#paint35_radial_308_755)" stroke="url(#paint36_linear_308_755)" stroke-width="0.464286"/>
</g>
<g filter="url(#filter3_f_308_755)">
<path d="M42.6221 17.9563C43.7557 18.7994 46.1208 21.0485 46.5313 23.3203C46.939 25.5921 46.6998 49.5093 46.5313 61.1839" stroke="url(#paint37_linear_308_755)" stroke-width="0.928571"/>
</g>
<g filter="url(#filter4_f_308_755)">
<path d="M66.5093 15.9758L66.5094 15.9759C68.2184 17.2169 68.8561 18.2485 68.8749 19.091C68.8935 19.9249 68.3058 20.6873 67.2561 21.3954C66.2151 22.0976 64.7806 22.704 63.2429 23.2387C61.8833 23.7113 60.4572 24.1233 59.1702 24.495C59.1648 24.4966 59.1594 24.4981 59.1541 24.4997C60.0601 22.4922 61.4829 20.1538 62.8973 18.4076C63.6594 17.4668 64.4082 16.7115 65.0622 16.2703C65.7359 15.8158 66.2081 15.7567 66.5093 15.9758Z" fill="#AFD962" stroke="url(#paint38_linear_308_755)" stroke-width="0.464286"/>
</g>
<g filter="url(#filter5_f_308_755)">
<path d="M46.3001 25.6411C45.1233 26.2472 43.8096 26.788 42.5486 27.2491C42.7796 24.9739 43.4468 22.5599 44.2814 20.7992C44.722 19.8696 45.2003 19.1413 45.6709 18.7086C46.1414 18.2759 46.5475 18.182 46.9023 18.3647C48.7989 19.3449 49.7343 20.2714 50.0459 21.1042C50.3471 21.9093 50.0852 22.6926 49.3914 23.467C48.6939 24.2455 47.588 24.9779 46.3001 25.6411Z" fill="#A3D061" stroke="url(#paint39_linear_308_755)" stroke-width="0.464286"/>
</g>
<defs>
<filter id="filter0_f_308_755" x="46.7355" y="14.9957" width="11.6403" height="47.1172" filterUnits="userSpaceOnUse" color-interpolation-filters="sRGB">
<feFlood flood-opacity="0" result="BackgroundImageFix"/>
<feBlend mode="normal" in="SourceGraphic" in2="BackgroundImageFix" result="shape"/>
<feGaussianBlur stdDeviation="0.464286" result="effect1_foregroundBlur_308_755"/>
</filter>
<filter id="filter1_f_308_755" x="14.3199" y="15.6164" width="11.4784" height="51.2568" filterUnits="userSpaceOnUse" color-interpolation-filters="sRGB">
<feFlood flood-opacity="0" result="BackgroundImageFix"/>
<feBlend mode="normal" in="SourceGraphic" in2="BackgroundImageFix" result="shape"/>
<feGaussianBlur stdDeviation="0.232143" result="effect1_foregroundBlur_308_755"/>
</filter>
<filter id="filter2_f_308_755" x="24.8292" y="13.9649" width="22.0769" height="14.5547" filterUnits="userSpaceOnUse" color-interpolation-filters="sRGB">
<feFlood flood-opacity="0" result="BackgroundImageFix"/>
<feBlend mode="normal" in="SourceGraphic" in2="BackgroundImageFix" result="shape"/>
<feGaussianBlur stdDeviation="0.464286" result="effect1_foregroundBlur_308_755"/>
</filter>
<filter id="filter3_f_308_755" x="41.4162" y="16.6552" width="6.73312" height="45.464" filterUnits="userSpaceOnUse" color-interpolation-filters="sRGB">
<feFlood flood-opacity="0" result="BackgroundImageFix"/>
<feBlend mode="normal" in="SourceGraphic" in2="BackgroundImageFix" result="shape"/>
<feGaussianBlur stdDeviation="0.464286" result="effect1_foregroundBlur_308_755"/>
</filter>
<filter id="filter4_f_308_755" x="58.2789" y="15.1556" width="11.2928" height="10.1689" filterUnits="userSpaceOnUse" color-interpolation-filters="sRGB">
<feFlood flood-opacity="0" result="BackgroundImageFix"/>
<feBlend mode="normal" in="SourceGraphic" in2="BackgroundImageFix" result="shape"/>
<feGaussianBlur stdDeviation="0.232143" result="effect1_foregroundBlur_308_755"/>
</filter>
<filter id="filter5_f_308_755" x="41.5878" y="17.347" width="9.51004" height="10.941" filterUnits="userSpaceOnUse" color-interpolation-filters="sRGB">
<feFlood flood-opacity="0" result="BackgroundImageFix"/>
<feBlend mode="normal" in="SourceGraphic" in2="BackgroundImageFix" result="shape"/>
<feGaussianBlur stdDeviation="0.348214" result="effect1_foregroundBlur_308_755"/>
</filter>
<radialGradient id="paint0_radial_308_755" cx="0" cy="0" r="1" gradientUnits="userSpaceOnUse" gradientTransform="translate(44.0243 9.84849) rotate(-138.647) scale(10.8646 13.757)">
<stop offset="0.36" stop-color="#B9BE4F"/>
<stop offset="0.53" stop-color="#F5EF41"/>
<stop offset="0.73" stop-color="#EDEE43"/>
<stop offset="0.945" stop-color="#B6C24B"/>
</radialGradient>
<linearGradient id="paint1_linear_308_755" x1="39.9651" y1="0.619873" x2="39.9651" y2="24.5244" gradientUnits="userSpaceOnUse">
<stop offset="0.427" stop-color="#438928"/>
<stop offset="1" stop-color="#8CBD5D" stop-opacity="0"/>
</linearGradient>
<linearGradient id="paint2_linear_308_755" x1="35.874" y1="8.19214" x2="35.874" y2="29.2443" gradientUnits="userSpaceOnUse">
<stop offset="0.427" stop-color="#438928"/>
<stop offset="1" stop-color="#8CBD5D" stop-opacity="0"/>
</linearGradient>
<linearGradient id="paint3_linear_308_755" x1="13.6686" y1="11.7996" x2="13.6686" y2="81.4384" gradientUnits="userSpaceOnUse">
<stop stop-color="#4E9100"/>
<stop offset="0.242" stop-color="#4B9103"/>
<stop offset="0.437" stop-color="#438F0D"/>
<stop offset="0.615" stop-color="#368D1E"/>
<stop offset="0.783" stop-color="#238A36"/>
<stop offset="0.943" stop-color="#0A8654"/>
<stop offset="1" stop-color="#008461"/>
</linearGradient>
<linearGradient id="paint4_linear_308_755" x1="13.6443" y1="13.241" x2="13.6443" y2="71.2985" gradientUnits="userSpaceOnUse">
<stop offset="0.427" stop-color="#438928"/>
<stop offset="1" stop-color="#8CBD5D" stop-opacity="0"/>
</linearGradient>
<linearGradient id="paint5_linear_308_755" x1="1.71815" y1="41.0076" x2="22.1068" y2="41.0076" gradientUnits="userSpaceOnUse">
<stop stop-color="#55825F"/>
<stop offset="0.517" stop-color="#3C7B4F"/>
<stop offset="1" stop-color="#507A57"/>
</linearGradient>
<linearGradient id="paint6_linear_308_755" x1="13.6443" y1="13.241" x2="13.6443" y2="71.2985" gradientUnits="userSpaceOnUse">
<stop offset="0.427" stop-color="#438928"/>
<stop offset="1" stop-color="#8CBD5D" stop-opacity="0"/>
</linearGradient>
<radialGradient id="paint7_radial_308_755" cx="0" cy="0" r="1" gradientUnits="userSpaceOnUse" gradientTransform="translate(-8.47892 23.6535) rotate(63.8016) scale(55.034 50.2276)">
<stop offset="0.691" stop-color="#375E6F" stop-opacity="0"/>
<stop offset="1" stop-color="#365C6D"/>
</radialGradient>
<linearGradient id="paint8_linear_308_755" x1="13.6443" y1="13.241" x2="13.6443" y2="71.2985" gradientUnits="userSpaceOnUse">
<stop offset="0.427" stop-color="#438928"/>
<stop offset="1" stop-color="#8CBD5D" stop-opacity="0"/>
</linearGradient>
<linearGradient id="paint9_linear_308_755" x1="58.0896" y1="6.81174" x2="58.0896" y2="76.4479" gradientUnits="userSpaceOnUse">
<stop stop-color="#4E9100"/>
<stop offset="0.231" stop-color="#4C9103"/>
<stop offset="0.254" stop-color="#4B9104"/>
<stop offset="0.396" stop-color="#479009"/>
<stop offset="0.558" stop-color="#3C8E16"/>
<stop offset="0.729" stop-color="#2A8B2D"/>
<stop offset="0.906" stop-color="#10874D"/>
<stop offset="1" stop-color="#008461"/>
</linearGradient>
<linearGradient id="paint10_linear_308_755" x1="58.0912" y1="13.241" x2="58.0912" y2="71.2985" gradientUnits="userSpaceOnUse">
<stop offset="0.427" stop-color="#438928"/>
<stop offset="1" stop-color="#8CBD5D" stop-opacity="0"/>
</linearGradient>
<linearGradient id="paint11_linear_308_755" x1="38.7774" y1="42.2697" x2="67.2591" y2="42.2697" gradientUnits="userSpaceOnUse">
<stop stop-color="#008461"/>
<stop offset="1" stop-color="#008461" stop-opacity="0"/>
</linearGradient>
<linearGradient id="paint12_linear_308_755" x1="58.0912" y1="13.241" x2="58.0912" y2="71.2985" gradientUnits="userSpaceOnUse">
<stop offset="0.427" stop-color="#438928"/>
<stop offset="1" stop-color="#8CBD5D" stop-opacity="0"/>
</linearGradient>
<linearGradient id="paint13_linear_308_755" x1="49.1213" y1="38.3269" x2="71.209" y2="38.3269" gradientUnits="userSpaceOnUse">
<stop stop-color="#769F37"/>
<stop offset="0.569" stop-color="#7DB459"/>
<stop offset="1" stop-color="#7DB24E"/>
</linearGradient>
<linearGradient id="paint14_linear_308_755" x1="58.0912" y1="13.241" x2="58.0912" y2="71.2985" gradientUnits="userSpaceOnUse">
<stop offset="0.427" stop-color="#438928"/>
<stop offset="1" stop-color="#8CBD5D" stop-opacity="0"/>
</linearGradient>
<radialGradient id="paint15_radial_308_755" cx="0" cy="0" r="1" gradientUnits="userSpaceOnUse" gradientTransform="translate(73.9275 18.4485) rotate(108.79) scale(73.3241 33.1865)">
<stop offset="0.553" stop-color="#3B5E72" stop-opacity="0"/>
<stop offset="0.767" stop-color="#36616C"/>
</radialGradient>
<linearGradient id="paint16_linear_308_755" x1="58.0912" y1="13.241" x2="58.0912" y2="71.2985" gradientUnits="userSpaceOnUse">
<stop offset="0.427" stop-color="#438928"/>
<stop offset="1" stop-color="#8CBD5D" stop-opacity="0"/>
</linearGradient>
<linearGradient id="paint17_linear_308_755" x1="35.8793" y1="9.26781" x2="35.8793" y2="78.904" gradientUnits="userSpaceOnUse">
<stop stop-color="#4E9100"/>
<stop offset="0.242" stop-color="#4B9103"/>
<stop offset="0.437" stop-color="#438F0D"/>
<stop offset="0.615" stop-color="#368D1E"/>
<stop offset="0.783" stop-color="#238A36"/>
<stop offset="0.943" stop-color="#0A8654"/>
<stop offset="1" stop-color="#008461"/>
</linearGradient>
<linearGradient id="paint18_linear_308_755" x1="35.8721" y1="13.241" x2="35.8721" y2="71.2985" gradientUnits="userSpaceOnUse">
<stop offset="0.427" stop-color="#438928"/>
<stop offset="1" stop-color="#8CBD5D" stop-opacity="0"/>
</linearGradient>
<linearGradient id="paint19_linear_308_755" x1="50.5996" y1="48.2926" x2="64.4123" y2="48.2926" gradientUnits="userSpaceOnUse">
<stop stop-color="#36812E"/>
<stop offset="0.274" stop-color="#68A166"/>
<stop offset="1" stop-color="#71A868"/>
</linearGradient>
<linearGradient id="paint20_linear_308_755" x1="52.5536" y1="15.9243" x2="52.5536" y2="61.1843" gradientUnits="userSpaceOnUse">
<stop offset="0.427" stop-color="#438928"/>
<stop offset="1" stop-color="#8CBD5D" stop-opacity="0"/>
</linearGradient>
<linearGradient id="paint21_linear_308_755" x1="20.0602" y1="37.2212" x2="13.7805" y2="37.2212" gradientUnits="userSpaceOnUse">
<stop stop-color="#25533D"/>
<stop offset="0.513" stop-color="#3E6956"/>
<stop offset="1" stop-color="#447159" stop-opacity="0"/>
</linearGradient>
<linearGradient id="paint22_linear_308_755" x1="20.0568" y1="16.0807" x2="20.0568" y2="66.409" gradientUnits="userSpaceOnUse">
<stop offset="0.427" stop-color="#438928"/>
<stop offset="1" stop-color="#8CBD5D" stop-opacity="0"/>
</linearGradient>
<linearGradient id="paint23_linear_308_755" x1="19.5684" y1="36.9057" x2="52.1903" y2="36.9057" gradientUnits="userSpaceOnUse">
<stop stop-color="#538058"/>
<stop offset="0.208" stop-color="#4A844D"/>
<stop offset="0.609" stop-color="#70A366"/>
<stop offset="1" stop-color="#83B84C"/>
</linearGradient>
<linearGradient id="paint24_linear_308_755" x1="35.8721" y1="13.241" x2="35.8721" y2="71.2985" gradientUnits="userSpaceOnUse">
<stop offset="0.427" stop-color="#438928"/>
<stop offset="1" stop-color="#8CBD5D" stop-opacity="0"/>
</linearGradient>
<radialGradient id="paint25_radial_308_755" cx="0" cy="0" r="1" gradientUnits="userSpaceOnUse" gradientTransform="translate(45.3835 2.75033) rotate(149.872) scale(3.14312 3.28262)">
<stop stop-color="#FFFF5E"/>
<stop offset="1" stop-color="#FFFF5C" stop-opacity="0"/>
</radialGradient>
<linearGradient id="paint26_linear_308_755" x1="39.9651" y1="0.619873" x2="39.9651" y2="24.5244" gradientUnits="userSpaceOnUse">
<stop offset="0.427" stop-color="#438928"/>
<stop offset="1" stop-color="#8CBD5D" stop-opacity="0"/>
</linearGradient>
<radialGradient id="paint27_radial_308_755" cx="0" cy="0" r="1" gradientUnits="userSpaceOnUse" gradientTransform="translate(43.345 13.8696) rotate(145.647) scale(14.8178 14.4592)">
<stop stop-color="#F7FF4D"/>
<stop offset="0.577" stop-color="#CEEC3A"/>
<stop offset="1" stop-color="#F5FF4B" stop-opacity="0"/>
</radialGradient>
<linearGradient id="paint28_linear_308_755" x1="35.874" y1="8.19263" x2="35.874" y2="29.2448" gradientUnits="userSpaceOnUse">
<stop offset="0.427" stop-color="#438928"/>
<stop offset="1" stop-color="#8CBD5D" stop-opacity="0"/>
</linearGradient>
<radialGradient id="paint29_radial_308_755" cx="0" cy="0" r="1" gradientUnits="userSpaceOnUse" gradientTransform="translate(18.7087 13.2411) rotate(117.213) scale(19.6915 19.3681)">
<stop stop-color="#7CAA51"/>
<stop offset="1" stop-color="#73A645" stop-opacity="0"/>
</radialGradient>
<linearGradient id="paint30_linear_308_755" x1="13.6443" y1="13.2411" x2="13.6443" y2="71.2986" gradientUnits="userSpaceOnUse">
<stop offset="0.427" stop-color="#438928"/>
<stop offset="1" stop-color="#8CBD5D" stop-opacity="0"/>
</linearGradient>
<radialGradient id="paint31_radial_308_755" cx="0" cy="0" r="1" gradientUnits="userSpaceOnUse" gradientTransform="translate(64.4128 22.0759) rotate(59.8629) scale(23.3503 32.0984)">
<stop stop-color="#ABD45C"/>
<stop offset="1" stop-color="#A7D05F" stop-opacity="0"/>
</radialGradient>
<linearGradient id="paint32_linear_308_755" x1="58.0912" y1="13.2411" x2="58.0912" y2="71.2986" gradientUnits="userSpaceOnUse">
<stop offset="0.427" stop-color="#438928"/>
<stop offset="1" stop-color="#8CBD5D" stop-opacity="0"/>
</linearGradient>
<radialGradient id="paint33_radial_308_755" cx="0" cy="0" r="1" gradientUnits="userSpaceOnUse" gradientTransform="translate(35.8793 19.5517) rotate(90) scale(60.424 69.2487)">
<stop offset="0.638" stop-color="#3D6176" stop-opacity="0"/>
<stop offset="0.881" stop-color="#415F7A"/>
</radialGradient>
<linearGradient id="paint34_linear_308_755" x1="35.8721" y1="13.2411" x2="35.8721" y2="71.2986" gradientUnits="userSpaceOnUse">
<stop offset="0.427" stop-color="#438928"/>
<stop offset="1" stop-color="#8CBD5D" stop-opacity="0"/>
</linearGradient>
<radialGradient id="paint35_radial_308_755" cx="0" cy="0" r="1" gradientUnits="userSpaceOnUse" gradientTransform="translate(29.9225 24.9156) rotate(-24.3931) scale(16.0441 18.3614)">
<stop stop-color="#629840"/>
<stop offset="0.387" stop-color="#679D43"/>
<stop offset="1" stop-color="#87B73D"/>
</radialGradient>
<linearGradient id="paint36_linear_308_755" x1="35.8634" y1="14.8934" x2="35.8634" y2="27.5909" gradientUnits="userSpaceOnUse">
<stop offset="0.427" stop-color="#438928"/>
<stop offset="1" stop-color="#8CBD5D" stop-opacity="0"/>
</linearGradient>
<linearGradient id="paint37_linear_308_755" x1="44.6881" y1="17.9563" x2="44.6881" y2="61.1839" gradientUnits="userSpaceOnUse">
<stop offset="0.427" stop-color="#438928"/>
<stop offset="1" stop-color="#8CBD5D" stop-opacity="0"/>
</linearGradient>
<linearGradient id="paint38_linear_308_755" x1="63.923" y1="15.6199" x2="63.923" y2="24.8602" gradientUnits="userSpaceOnUse">
<stop offset="0.427" stop-color="#438928"/>
<stop offset="1" stop-color="#8CBD5D" stop-opacity="0"/>
</linearGradient>
<linearGradient id="paint39_linear_308_755" x1="46.3412" y1="18.0435" x2="46.3412" y2="27.5916" gradientUnits="userSpaceOnUse">
<stop offset="0.427" stop-color="#438928"/>
<stop offset="1" stop-color="#8CBD5D" stop-opacity="0"/>
</linearGradient>
</defs>
</svg>
