<svg width="22" height="26" viewBox="0 0 22 26" fill="none" xmlns="http://www.w3.org/2000/svg">
<path d="M21.1253 25.875H7.91159L0.0273438 15.4332L1.14247 14.2136L6.26434 16.789V5.62125H7.64759V19.1237L2.72647 16.69L8.64447 24.5H19.7503V14.2411H11.455V12.8661H21.1253V25.875ZM2.19572 9.05875C1.95005 8.64258 1.76489 8.20258 1.64022 7.73875C1.51464 7.27583 1.45184 6.79916 1.45184 6.30875C1.45184 4.77608 1.9858 3.47625 3.05372 2.40925C4.1198 1.34133 5.41918 0.807373 6.95184 0.807373C8.48451 0.807373 9.78434 1.34133 10.8513 2.40925C11.9183 3.47716 12.4518 4.77562 12.4518 6.30462C12.4518 6.80146 12.3895 7.28041 12.2648 7.7415C12.1402 8.20258 11.955 8.64121 11.7093 9.05737L10.5268 8.36987C10.7102 8.04904 10.8477 7.72271 10.9393 7.39087C11.031 7.05904 11.0768 6.69787 11.0768 6.30737C11.0768 5.16154 10.6758 4.18758 9.87372 3.3855C9.07164 2.58341 8.09768 2.18283 6.95184 2.18375C5.80601 2.18466 4.83205 2.58571 4.02997 3.38687C3.22789 4.18804 2.82684 5.162 2.82684 6.30875C2.82684 6.69833 2.87268 7.0595 2.96434 7.39225C3.05601 7.725 3.19351 8.05133 3.37684 8.37125L2.19572 9.05875Z" fill="#4C2E30"/>
</svg>
