<svg width="21" height="19" viewBox="0 0 21 19" fill="none" xmlns="http://www.w3.org/2000/svg">
<path d="M5.31774 5.4825L7.23343 7.47129M7.23343 7.47129C8.02686 6.04394 9.29453 4.96604 10.7988 4.43968M7.23343 7.47129C6.55796 8.68386 6.26567 10.0868 6.39767 11.4808M12.4713 11.2459L5.96292 18.0026M10.7988 4.43968C11.4648 4.20755 12.1628 4.0899 12.8654 4.09138H15.8977C17.1106 4.09138 17.7171 4.09138 18.1806 4.33663C18.5876 4.552 18.9191 4.89617 19.1266 5.31866C19.3628 5.79989 19.3628 6.4295 19.3628 7.68872V10.8368C19.3626 12.5698 18.7198 14.2362 17.5679 15.4905C16.416 16.7447 14.8433 17.4906 13.1759 17.5734C11.5085 17.6563 9.87436 17.0697 8.61236 15.9353C7.35035 14.801 6.55731 13.2059 6.39767 11.4808M10.7988 4.43968C10.4425 3.43085 9.79644 2.55995 8.94788 1.94476C8.09931 1.32957 7.08923 0.999784 6.05424 1H3.69387C2.75092 1 2.27944 1 1.91913 1.19064C1.60211 1.3585 1.34433 1.62612 1.18264 1.95524C1 2.32929 1 2.81876 1 3.7977V6.24608C0.99974 6.96524 1.14194 7.67678 1.41777 8.33647C1.69359 8.99617 2.09715 9.58993 2.60336 10.0809C3.10958 10.5718 3.70763 10.9494 4.36036 11.1902C5.0131 11.4311 5.70656 11.53 6.39767 11.4808" stroke="#F5F5F5" stroke-width="1.70026" stroke-linecap="round" stroke-linejoin="round"/>
</svg>
