<svg width="249" height="413" viewBox="0 0 249 413" fill="none" xmlns="http://www.w3.org/2000/svg">
<path d="M210.218 412.368L210.392 412.194L211.935 410.651L211.515 410.231L214.601 407.146L215.021 407.566L218.106 404.48L217.686 404.06L220.772 400.974L221.192 401.394L224.278 398.309L223.858 397.889L226.943 394.803L227.363 395.223L230.449 392.137L230.029 391.717L233.115 388.632L233.535 389.052L236.62 385.966L236.2 385.546L239.286 382.46L239.706 382.88L242.792 379.795L242.372 379.375L245.457 376.289L245.877 376.709L247.42 375.166L247.594 374.992V374.746V372.353H247V367.567H247.594V362.78H247V357.993H247.594V353.206H247V348.42H247.594V343.633H247V338.846H247.594V334.06H247V329.273H247.594V324.486H247V319.7H247.594V314.913H247V310.126H247.594V305.34H247V300.553H247.594V295.766H247V290.98H247.594V286.193H247V281.406H247.594V276.62H247V271.833H247.594V267.046H247V262.26H247.594V257.473H247V252.686H247.594V247.899H247V243.113H247.594V238.326H247V233.539H247.594V228.753H247V223.966H247.594V219.179H247V214.393H247.594V209.606H247V204.819H247.594V200.033H247V195.246H247.594V190.459H247V185.673H247.594V180.886H247V176.099H247.594V171.313H247V166.526H247.594V161.739H247V156.953H247.594V152.166H247V147.379H247.594V142.592H247V137.806H247.594V133.019H247V128.232H247.594V123.446H247V118.659H247.594V113.872H247V109.086H247.594V104.299H247V99.5124H247.594V94.7257H247V89.939H247.594V85.1524H247V80.3657H247.594V75.579H247V70.7924H247.594V66.0057H247V61.219H247.594V56.4323H247V51.6457H247.594V46.859H247V42.0723H247.594V37.2856H247V32.499H247.594V27.7123H247V22.9256H247.594V18.1389H247V13.3522H247.594V8.56557H247V3.7789H247.594V1.38556V0.791534H247H244.637V1.38556H239.91V0.791534H235.183V1.38556H230.457V0.791534H225.73V1.38556H221.003V0.791534H216.277V1.38556H211.55V0.791534H206.824V1.38556H202.097V0.791534H197.37V1.38556H192.644V0.791534H187.917V1.38556H183.19V0.791534H178.464V1.38556H173.737V0.791534H169.01V1.38556H164.284V0.791534H159.557V1.38556H154.83V0.791534H150.104V1.38556H145.377V0.791534H140.651V1.38556H135.924V0.791534H131.197V1.38556H126.471V0.791534H121.744V1.38556H117.017V0.791534H112.291V1.38556H107.564V0.791534H102.837V1.38556H98.1108V0.791534H93.3842V1.38556H88.6575V0.791534H83.9309V1.38556H79.2042V0.791534H74.4776V1.38556H69.751V0.791534H65.0243V1.38556H60.2977V0.791534H55.571V1.38556H50.8444V0.791534H46.1178V1.38556H41.3911V0.791534H39.0278H38.7817L38.6078 0.96552L37.0627 2.5106L37.4827 2.93064L34.3958 6.01757L33.9758 5.59752L30.8923 8.68101L31.3123 9.10105L28.2269 12.1865L27.8069 11.7664L24.7212 14.8521L25.1412 15.2721L22.0563 18.3571L21.6363 17.937L18.5515 21.0218L18.9715 21.4419L15.8866 24.5268L15.4666 24.1067L12.3809 27.1924L12.8009 27.6124L9.7155 30.6979L9.29546 30.2778L6.21197 33.3613L6.63201 33.7813L3.54508 36.8683L3.12504 36.4482L1.57996 37.9933L1.40597 38.1673V38.4134V40.8064H2V45.5931H1.40597V50.3798H2V55.1665H1.40597V59.9531H2V64.7398H1.40597V69.5265H2V74.3132H1.40597V79.0999H2V83.8866H1.40597V88.6732H2V93.4599H1.40597V98.2466H2V103.033H1.40597V107.82H2V112.607H1.40597V117.393H2V122.18H1.40597V126.967H2V131.753H1.40597V136.54H2V141.327H1.40597V146.113H2V150.9H1.40597V155.687H2V160.473H1.40597V165.26H2V170.047H1.40597V174.834H2V179.62H1.40597V184.407H2V189.194H1.40597V193.98H2V198.767H1.40597V203.554H2V208.34H1.40597V213.127H2V217.914H1.40597V222.7H2V227.487H1.40597V232.274H2V237.06H1.40597V241.847H2V246.634H1.40597V251.42H2V256.207H1.40597V260.994H2V265.78H1.40597V270.567H2V275.354H1.40597V280.141H2V284.927H1.40597V289.714H2V294.501H1.40597V299.287H2V304.074H1.40597V308.861H2V313.647H1.40597V318.434H2V323.221H1.40597V328.007H2V332.794H1.40597V337.581H2V342.367H1.40597V347.154H2V351.941H1.40597V356.727H2V361.514H1.40597V366.301H2V371.087H1.40597V375.874H2V380.661H1.40597V385.447H2V390.234H1.40597V395.021H2V399.807H1.40597V404.594H2V409.381H1.40597V411.774V412.368H2H4.36339V411.774H9.09003V412.368H13.8167V411.774H18.5433V412.368H23.2699V411.774H27.9966V412.368H32.7232V411.774H37.4499V412.368H42.1765V411.774H46.9031V412.368H51.6298V411.774H56.3564V412.368H61.0831V411.774H65.8097V412.368H70.5363V411.774H75.263V412.368H79.9896V411.774H84.7162V412.368H89.4429V411.774H94.1695V412.368H98.8962V411.774H103.623V412.368H108.349V411.774H113.076V412.368H117.803V411.774H122.529V412.368H127.256V411.774H131.983V412.368H136.709V411.774H141.436V412.368H146.163V411.774H150.889V412.368H155.616V411.774H160.342V412.368H165.069V411.774H169.796V412.368H174.522V411.774H179.249V412.368H183.976V411.774H188.702V412.368H193.429V411.774H198.156V412.368H202.882V411.774H207.609V412.368H209.972H210.218Z" fill="white" stroke="#4C2E30" stroke-width="1.18805" stroke-miterlimit="10" stroke-dasharray="4.76 4.76"/>
</svg>
