<?xml version="1.0" encoding="UTF-8"?>
<svg id="_レイヤー_2" data-name="レイヤー 2" xmlns="http://www.w3.org/2000/svg" viewBox="0 0 309.69 422.27">
  <defs>
    <style>
      .cls-1 {
        fill: none;
      }

      .cls-2 {
        fill: #fce3d1;
      }

      .cls-3 {
        fill: #7f5340;
      }

      .cls-4 {
        fill: #f5b8b9;
      }

      .cls-5 {
        fill: #ecd5c4;
      }
    </style>
  </defs>
  <g id="_レイヤー_3" data-name="レイヤー 3">
    <g>
      <g>
        <path class="cls-3" d="M69.98,107.5s4.78,48.37-4.76,71.87c-6.6,16.28-5.17,40.09,2.89,54.6,7.84,14.11.72,33.99-19.55,26.38,10.64,37.09,41.13,31.25,60.38,17.5,19.25-13.75,27.73-38.62,21.44-55.16-6.29-16.54-37.53-116.87-37.53-116.87l-22.88,1.68Z"/>
        <path class="cls-3" d="M239.71,107.5s-4.78,48.37,4.76,71.87c6.6,16.28,5.17,40.09-2.89,54.6-7.84,14.11-.72,33.99,19.55,26.38-10.64,37.09-41.13,31.25-60.38,17.5-19.25-13.75-27.73-38.62-21.44-55.16s37.53-116.87,37.53-116.87l22.88,1.68Z"/>
      </g>
      <path class="cls-2" d="M233.79,124.07c0,28.59-8.84,46.91-23.12,65.64-14.29,18.73-34.02,37.88-55.82,37.88s-41.53-19.14-55.82-37.88c-14.29-18.73-23.12-37.06-23.12-65.64s8.84-54.47,23.12-73.2c14.29-18.73,34.02-30.32,55.82-30.32s41.53,11.59,55.82,30.32c14.29,18.73,23.12,44.61,23.12,73.2Z"/>
      <g>
        <path class="cls-2" d="M87.88,133.37c3.72,14.52-.33,27.06-9.04,28.01-8.71.95-18.78-10.05-22.5-24.57-3.72-14.52.33-27.06,9.04-28.01s18.78,10.05,22.5,24.57Z"/>
        <path class="cls-2" d="M221.81,133.37c-3.72,14.52.33,27.06,9.04,28.01s18.78-10.05,22.5-24.57c3.72-14.52-.33-27.06-9.04-28.01-8.71-.95-18.78,10.05-22.5,24.57Z"/>
      </g>
      <path class="cls-1" d="M233.79,124.07c0,28.59-8.84,46.91-23.12,65.64-14.29,18.73-34.02,37.88-55.82,37.88s-41.53-19.14-55.82-37.88c-14.29-18.73-23.12-37.06-23.12-65.64s8.84-54.47,23.12-73.2c14.29-18.73,34.02-30.32,55.82-30.32s41.53,11.59,55.82,30.32c14.29,18.73,23.12,44.61,23.12,73.2Z"/>
      <g>
        <path class="cls-3" d="M226.63,96.21c-.76-.09-1.52-.02-2.28.2,4.18,11.15,6.35,24.76,5.74,39.37-.59,14.15-3.71,27.16-8.54,37.75,6.51-4.11,12.64-18.6,14.76-36.37,2.59-21.66-1.75-40-9.68-40.94Z"/>
        <path class="cls-3" d="M83.06,96.21c.76-.09,1.52-.02,2.28.2-4.18,11.15-6.35,24.76-5.74,39.37.59,14.15,3.71,27.16,8.54,37.75-6.51-4.11-12.64-18.6-14.76-36.37-2.59-21.66,1.75-40,9.68-40.94Z"/>
      </g>
      <path class="cls-1" d="M209.95,93.74c-14.85-11.89-24.76-27.15-28.97-42.43-7.33,9.42-16.03,18.47-26,26.8-25.15,21-53.47,33.26-78.71,36.02-.24,3.28-.37,6.59-.37,9.95,0,28.59,8.84,46.91,23.12,65.64,14.29,18.73,34.02,37.88,55.82,37.88s41.53-19.14,55.82-37.88c14.29-18.73,23.12-37.06,23.12-65.64,0-5.78-.38-11.44-1.07-16.97-7.85-3.16-15.57-7.6-22.77-13.37Z"/>
      <path class="cls-2" d="M291.62,303.16c-25.64-22.71-38.22-8.72-78.78-28.86-30.57-15.18-28.33-44.63-28.33-71.44,0-2.85.05-5.67.16-8.45-8.45-6.13-18.71-9.9-29.83-10.35-11.12.44-21.38,4.22-29.83,10.35.1,2.78.16,5.6.16,8.45,0,26.81,2.24,56.26-28.33,71.44-40.56,20.15-53.14,6.15-78.78,28.86-30.46,26.97-13.2,119.11-13.2,119.11h299.96s17.25-92.14-13.2-119.11Z"/>
      <path class="cls-5" d="M154.85,227.59c-10.42,0-20.37-4.38-29.48-11,1.41,5.25,4.17,9.53,7.88,13.73,5.53,6.25,13.16,12.34,21.6,12.34s16.07-6.08,21.6-12.34c3.72-4.2,6.47-8.48,7.88-13.73-9.11,6.62-19.06,11-29.48,11Z"/>
      <path class="cls-4" d="M291.62,303.16c-18.5-16.39-30.2-13.67-50.52-18.45-23.14,16.23-53.28,26.04-86.25,26.04s-63.11-9.81-86.25-26.04c-20.32,4.78-32.02,2.06-50.52,18.45-30.46,26.97-13.2,119.11-13.2,119.11h299.96s17.25-92.14-13.2-119.11Z"/>
      <path class="cls-3" d="M241.63,94.14C241.63,42.15,202.78,0,154.85,0s-86.78,42.15-86.78,94.14c0,14.34,2.96,27.92,8.24,40.08-.26-3.24-.4-6.62-.4-10.15s.13-6.67.37-9.95c25.24-2.76,53.56-15.02,78.71-36.02,9.97-8.32,18.67-17.38,26-26.8,4.2,15.29,14.12,30.54,28.97,42.43,7.2,5.76,14.92,10.21,22.77,13.37.69,5.52,1.07,11.19,1.07,16.97,0,3.53-.14,6.91-.4,10.15,5.28-12.16,8.24-25.75,8.24-40.08Z"/>
    </g>
  </g>
</svg>