<?xml version="1.0" encoding="UTF-8"?>
<svg id="_レイヤー_2" data-name="レイヤー 2" xmlns="http://www.w3.org/2000/svg" viewBox="0 0 309.69 422.27">
  <defs>
    <style>
      .cls-1 {
        fill: none;
      }

      .cls-2 {
        fill: #fce3d1;
      }

      .cls-3 {
        fill: #7f5340;
      }

      .cls-4 {
        fill: #ecd5c4;
      }

      .cls-5 {
        fill: #fedd75;
      }
    </style>
  </defs>
  <g id="_レイヤー_3" data-name="レイヤー 3">
    <g>
      <path class="cls-3" d="M68.47,83.02s-9.93,72.96-16.22,107.77c-8.06,44.61,71.2,53.69,102.4,51.87,0-15.07-13.88-118.59-13.88-118.59l-72.3-41.05Z"/>
      <path class="cls-3" d="M241.22,83.02s9.93,72.96,16.22,107.77c8.06,44.61-71.2,53.69-102.4,51.87,0-15.07,13.88-118.59,13.88-118.59l72.3-41.05Z"/>
      <path class="cls-2" d="M233.79,124.07c0,28.59-8.84,46.91-23.12,65.64-14.29,18.73-34.02,37.88-55.82,37.88s-41.53-19.14-55.82-37.88c-14.29-18.73-23.12-37.06-23.12-65.64s8.84-54.47,23.12-73.2c14.29-18.73,34.02-30.32,55.82-30.32s41.53,11.59,55.82,30.32c14.29,18.73,23.12,44.61,23.12,73.2Z"/>
      <path class="cls-2" d="M87.88,133.37c3.72,14.52-.33,27.06-9.04,28.01-8.71.95-18.78-10.05-22.5-24.57-3.72-14.52.33-27.06,9.04-28.01,8.71-.95,18.78,10.05,22.5,24.57Z"/>
      <path class="cls-2" d="M221.81,133.37c-3.72,14.52.33,27.06,9.04,28.01,8.71.95,18.78-10.05,22.5-24.57,3.72-14.52-.33-27.06-9.04-28.01-8.71-.95-18.78,10.05-22.5,24.57Z"/>
      <path class="cls-1" d="M233.79,124.07c0,28.59-8.84,46.91-23.12,65.64-14.29,18.73-34.02,37.88-55.82,37.88s-41.53-19.14-55.82-37.88c-14.29-18.73-23.12-37.06-23.12-65.64s8.84-54.47,23.12-73.2c14.29-18.73,34.02-30.32,55.82-30.32s41.53,11.59,55.82,30.32c14.29,18.73,23.12,44.61,23.12,73.2Z"/>
      <path class="cls-3" d="M226.63,96.21c-.76-.09-1.52-.02-2.28.2,4.18,11.15,6.35,24.76,5.74,39.37-.59,14.15-3.71,27.16-8.54,37.75,6.51-4.11,12.64-18.6,14.76-36.37,2.59-21.66-1.75-40-9.68-40.94Z"/>
      <path class="cls-3" d="M83.06,96.21c.76-.09,1.52-.02,2.28.2-4.18,11.15-6.35,24.76-5.74,39.37.59,14.15,3.71,27.16,8.54,37.75-6.51-4.11-12.64-18.6-14.76-36.37-2.59-21.66,1.75-40,9.68-40.94Z"/>
      <path class="cls-2" d="M291.62,303.16c-25.64-22.71-38.22-8.72-78.78-28.86-30.57-15.18-28.33-44.63-28.33-71.44,0-2.85.05-5.67.16-8.45-8.45-6.13-18.71-9.9-29.83-10.35-11.12.44-21.38,4.22-29.83,10.35.1,2.78.16,5.6.16,8.45,0,26.81,2.24,56.26-28.33,71.44-40.56,20.15-53.14,6.15-78.78,28.86-30.46,26.97-13.2,119.11-13.2,119.11h299.96s17.25-92.14-13.2-119.11Z"/>
      <path class="cls-4" d="M154.85,227.59c-10.42,0-20.37-4.38-29.48-11,1.41,5.25,4.17,9.53,7.88,13.73,5.53,6.25,13.16,12.34,21.6,12.34s16.07-6.08,21.6-12.34c3.72-4.2,6.47-8.48,7.88-13.73-9.11,6.62-19.06,11-29.48,11Z"/>
      <path class="cls-5" d="M291.62,303.16c-22.81-20.2-35.29-11.38-66.32-23.36l-70.46,58.28-70.46-58.28c-31.02,11.98-43.51,3.16-66.31,23.36-30.46,26.97-13.2,119.11-13.2,119.11h299.96s17.25-92.14-13.2-119.11Z"/>
      <path class="cls-3" d="M241.63,94.14C241.63,42.15,202.78,0,154.85,0s-86.78,42.15-86.78,94.14c0,14.34,2.96,27.92,8.24,40.08-.26-3.24-.4-6.62-.4-10.15,0-4.65.26-9.21.71-13.69,48.04-14.34,68.79-35.77,77.13-54.89-4.96,31.25-20.8,45.85-36.57,52.64,30.24-.77,50.17-32.25,58.37-57.66,1.58,29.31-6.8,49.03-19.62,58.66,25.06-5.87,31.55-30.41,30.6-51.52,6.03,24.11,3.85,41.35-2.87,52.52,13.38-8.68,16.52-25.42,15.1-41.68,12.5,19.52,26.21,37.25,34.1,39.67.61,5.2.93,10.52.93,15.94,0,3.53-.14,6.91-.4,10.15,5.28-12.16,8.24-25.75,8.24-40.08Z"/>
    </g>
  </g>
</svg>