<?xml version="1.0" encoding="UTF-8"?>
<svg id="_レイヤー_2" data-name="レイヤー 2" xmlns="http://www.w3.org/2000/svg" xmlns:xlink="http://www.w3.org/1999/xlink" viewBox="0 0 76.67 124.54">
  <defs>
    <style>
      .cls-1, .cls-2 {
        fill: none;
      }

      .cls-3 {
        fill: #b08d51;
      }

      .cls-3, .cls-4, .cls-5, .cls-6, .cls-2, .cls-7, .cls-8 {
        stroke: #000;
        stroke-linecap: round;
        stroke-linejoin: round;
      }

      .cls-3, .cls-4, .cls-2, .cls-7, .cls-8 {
        stroke-width: .75px;
      }

      .cls-4, .cls-9 {
        fill: #fff796;
      }

      .cls-5 {
        stroke-width: .76px;
      }

      .cls-5, .cls-6 {
        fill: #e16e55;
      }

      .cls-6 {
        stroke-width: .81px;
      }

      .cls-7 {
        fill: #ee7b5b;
      }

      .cls-8, .cls-10 {
        fill: #fef1e6;
      }

      .cls-11 {
        clip-path: url(#clippath);
      }
    </style>
    <clipPath id="clippath">
      <rect class="cls-1" width="76.67" height="107.5"/>
    </clipPath>
  </defs>
  <g id="_レイヤー_1-2" data-name="レイヤー 1">
    <g class="cls-11">
      <g>
        <g>
          <path class="cls-8" d="M13.14,84.01h9.11l-3.8,39.35h-6.56s-.1-15.29.92-34.45c.1-1.8.21-3.41.33-4.9Z"/>
          <path class="cls-4" d="M22.2,62.62s-7.77.5-9.64,10.9c0,0-2.84,9.84-3.81,11.12.48.31,5.08,5.43,13.92,2.76l-.47-24.79Z"/>
        </g>
        <g>
          <path class="cls-8" d="M65.05,84.01h-9.11l3.8,39.35h6.56s.1-15.29-.92-34.45c-.1-1.8-.21-3.41-.33-4.9Z"/>
          <path class="cls-4" d="M55.99,62.62s7.77.5,9.64,10.9c0,0,2.84,9.84,3.81,11.12-.48.31-5.08,5.43-13.92,2.76l.47-24.79Z"/>
        </g>
        <g>
          <path class="cls-4" d="M21.31,64.12s1.14-1.77,4.63-3.1c2.71-1.04,5.74-1.7,6.12-1.8,1.55-.41,11.94-.18,13.49.12.45.08,3.82.56,6.92,1.75,2.97,1.14,3.13,3.04,3.13,3.04l.51,34.51,1.26,22.48c-6.61,3.29-30.66,3.29-37.28,0l1.26-22.59-.03-34.4Z"/>
          <g>
            <path class="cls-8" d="M49.52,62.81c0,2.25-4.49,5.74-10.2,5.74s-10.47-3.49-10.47-5.74,4.63-4.08,10.33-4.08,10.33,1.83,10.33,4.08Z"/>
            <path class="cls-8" d="M45.55,63.09c-2.07-6.23-1.6-15.21-1.6-15.21h-9.85s.72,8.55-1.49,15.21c0,0,3.02,2.7,7.01,2.66,3.99-.03,5.93-2.66,5.93-2.66Z"/>
            <path class="cls-10" d="M46.95,63.54c0,1.57-3.53,2.83-7.88,2.83s-7.88-1.27-7.88-2.83,3.63.1,7.98.1,7.78-1.67,7.78-.1Z"/>
          </g>
          <path class="cls-9" d="M58.58,63.84c0,.19-1.28,23.05-1.7,23.46-.23.23-1.17.17-1.2.13-.18-.27-.94-6.86-.89-13.47.04-5.57,1.69-10.86,1.69-10.86l2.09.74Z"/>
          <path class="cls-9" d="M18.97,64.09c0,.19,1.28,22.96,1.7,23.37.23.23,1.17.17,1.2.13.18-.27.94-6.86.89-13.47-.04-5.57-1.72-10.97-1.72-10.97l-2.06.94Z"/>
          <path class="cls-5" d="M58.8,124.16l-4.5-49.61,1.88-11.85s-.24-.77-1.87-1.41c-1.64-.63-2.12-.39-2.12-.39l-2.44,12.03s-6.62-.81-11.01-.81-11.18.81-11.18.81l-2.44-12.03s-.49-.24-2.12.39c-1.64.63-1.87,1.41-1.87,1.41l2.15,12.79-4.3,48.68h39.83Z"/>
          <polygon class="cls-6" points="20.05 110 19.78 113.07 38.87 114.49 57.96 113.07 57.68 110 38.87 110.98 20.05 110"/>
          <g>
            <path class="cls-6" d="M38.33,111.51l-8.18-2.08s-.48.38-.65,1.81c-.17,1.43.16,2.38.16,2.38l8.45.5.22-2.6Z"/>
            <path class="cls-6" d="M39.91,113.96l8.42-.64s.34-.52.04-1.92c-.3-1.41-.91-2.2-.91-2.2l-8.17,2.23.62,2.54Z"/>
            <path class="cls-6" d="M40.58,110.81s5.69,6.3,5.82,10.24l-2.55,1.98s-1.98-6.84-4.21-9.36l.93-2.87Z"/>
            <polygon class="cls-6" points="40.45 114.78 36.7 114.35 36.46 110.62 40.69 110.38 40.45 114.78"/>
          </g>
        </g>
        <g>
          <path class="cls-3" d="M44.2,17.59c0,2.87-2.32,5.19-5.19,5.19s-5.19-2.32-5.19-5.19,2.32-5.19,5.19-5.19,5.19,2.32,5.19,5.19Z"/>
          <path class="cls-2" d="M38.86,13.91s-3.2,1.3-2.68,5.48"/>
          <path class="cls-2" d="M40.59,16.13s1.7,1.36,1.48,3.13"/>
          <g>
            <path class="cls-8" d="M29.24,41.54c.63,1.9,1.96,5.21.21,5.79-1.76.58-3.65-.15-5.34-3.83-.84-1.82-.12-4.25,1.63-4.83s2.87.97,3.5,2.87Z"/>
            <path class="cls-8" d="M48.53,41.54c-.63,1.9-1.96,5.21-.21,5.79s3.65-.15,5.34-3.83c.84-1.82.12-4.25-1.63-4.83-1.76-.58-2.87.97-3.5,2.87Z"/>
            <path class="cls-8" d="M27.34,33.83c-.45,10.07,3.65,21.95,11.78,21.95s11.96-12.42,11.57-22.22c-.36-9.02-5.82-13.6-11.97-13.49-6.07.11-11,5.04-11.39,13.76Z"/>
            <g>
              <path d="M45.27,41.32c0,.7-.48,1.27-1.07,1.27s-1.07-.57-1.07-1.27.48-1.27,1.07-1.27,1.07.57,1.07,1.27Z"/>
              <path d="M34.89,41.32c0,.7-.48,1.27-1.07,1.27s-1.07-.57-1.07-1.27.48-1.27,1.07-1.27,1.07.57,1.07,1.27Z"/>
            </g>
            <g>
              <path class="cls-2" d="M46.82,38.9s-1.49-2.43-4.18-1.25"/>
              <path class="cls-2" d="M31.21,38.9s1.49-2.43,4.18-1.25"/>
            </g>
            <path class="cls-2" d="M41.34,48.89s-1.97,1.55-4.66,0"/>
            <line class="cls-2" x1="39.01" y1="45.14" x2="39.01" y2="45.78"/>
          </g>
          <path class="cls-3" d="M44.58,20.26c10.22,3.75,6.15,18.38,6.15,18.38-6.74-3.32-11.92-10.52-11.92-10.52,0,0-4.74,7.74-11.71,10.22,0,0-3.39-12.09,5.45-17.36,3.62-2.16,8.08-2.17,12.03-.71Z"/>
          <path class="cls-2" d="M37.07,19.39s-1.73.8-2.08,3.61"/>
          <path class="cls-2" d="M33.46,20.52s-1.7.44-2.21,3.23"/>
          <path class="cls-2" d="M41.39,19.48s2,.97,2.35,3.79"/>
          <path class="cls-2" d="M45.07,20.52s1.7.44,2.21,3.23"/>
          <line class="cls-2" x1="39.01" y1="19.25" x2="39.01" y2="22.19"/>
          <path class="cls-7" d="M29.07,47.22c0,.62-.5,1.12-1.12,1.12s-1.12-.5-1.12-1.12.5-1.12,1.12-1.12,1.12.5,1.12,1.12Z"/>
          <path class="cls-7" d="M51.07,47.22c0,.62-.5,1.12-1.12,1.12s-1.12-.5-1.12-1.12.5-1.12,1.12-1.12,1.12.5,1.12,1.12Z"/>
        </g>
      </g>
    </g>
  </g>
</svg>