<?xml version="1.0" encoding="UTF-8"?>
<svg id="_レイヤー_2" data-name="レイヤー 2" xmlns="http://www.w3.org/2000/svg" xmlns:xlink="http://www.w3.org/1999/xlink" viewBox="0 0 76.67 122.34">
  <defs>
    <style>
      .cls-1, .cls-2 {
        fill: none;
      }

      .cls-3, .cls-4 {
        fill: #f4bfae;
      }

      .cls-2, .cls-4, .cls-5, .cls-6 {
        stroke: #000;
        stroke-linecap: round;
        stroke-linejoin: round;
        stroke-width: .75px;
      }

      .cls-5, .cls-7 {
        fill: #fef1e6;
      }

      .cls-6 {
        fill: #998f8f;
      }

      .cls-8 {
        clip-path: url(#clippath);
      }
    </style>
    <clipPath id="clippath">
      <rect class="cls-1" width="76.67" height="107.5"/>
    </clipPath>
  </defs>
  <g id="_レイヤー_1-2" data-name="レイヤー 1">
    <g class="cls-8">
      <g>
        <g>
          <path class="cls-4" d="M20.81,59.26s-6.62,2.35-7.1,10.42c-.5,8.49-.09,4.79-.74,16.13-1.03,18-2.58,32.38-2.58,32.38l8.4.15,5.16-39.92-3.14-19.16Z"/>
          <path class="cls-4" d="M57.38,59.26s6.62,2.35,7.1,10.42c.5,8.49.09,4.79.74,16.13,1.03,18,2.58,32.38,2.58,32.38l-8.4.15-5.16-39.92,3.14-19.16Z"/>
          <path class="cls-4" d="M58.35,59.78s-1.96-1.62-4.95-2.81c-3.13-1.24-6.39-1.72-6.84-1.8-6.39-1.1-9.28-.95-15.1,0-.45.07-3.71.56-6.84,1.8-3,1.19-4.95,2.81-4.95,2.81l3.17,36.24-3.15,23.39c3.41,1.75,11.42,2.59,19.33,2.55,7.91.04,15.92-.8,19.33-2.55l-3.15-23.39,3.17-36.24Z"/>
          <g>
            <path class="cls-5" d="M49.36,58.77c0,2.34-2.68,6.9-10.43,6.9s-10.43-4.56-10.43-6.9,4.67-4.24,10.43-4.24,10.43,1.9,10.43,4.24Z"/>
            <path class="cls-5" d="M45.36,59.06c-2.09-6.48-1.61-15.82-1.61-15.82h-9.94s.73,8.89-1.51,15.82c0,0,3.05,2.8,7.08,2.77,4.03-.04,5.98-2.77,5.98-2.77Z"/>
            <path class="cls-7" d="M46.76,59.52c0,1.63-3.56,2.95-7.95,2.95s-7.95-1.32-7.95-2.95,3.67.11,8.06.11,7.85-1.74,7.85-.11Z"/>
          </g>
          <path class="cls-3" d="M22.36,80.97c-.38-9.14-.77-21.91-.77-21.91,0,0-.6.33-1.15.67-.56.34-1.26.79-1.26.79,0,.55.28,21.13.28,21.13,0,0,.73-.73,1.48-.71.75.02,1.42.04,1.42.04Z"/>
          <path class="cls-3" d="M55.81,80.97c.38-9.14.77-21.91.77-21.91,0,0,.6.33,1.15.67.56.34,1.26.79,1.26.79,0,.55-.28,21.13-.28,21.13,0,0-.73-.73-1.48-.71-.75.02-1.42.04-1.42.04Z"/>
        </g>
        <g>
          <path class="cls-6" d="M51.84,54.53c-.61,1.92-2.69,7.04-5.34,7.52.54-1.44,1.33-1.79.6-3.01-5.56-9.25,1.18-17.34,2.19-16.47.51.45,4.62,5.42,2.54,11.95Z"/>
          <path class="cls-2" d="M29.05,43.24s-1.69,2.18-.31,4.04"/>
          <g>
            <path class="cls-5" d="M48.65,37.69c-.63,1.9-1.96,5.21-.21,5.79,1.76.59,3.65-.15,5.34-3.83.84-1.82.12-4.25-1.63-4.83-1.76-.58-2.87.97-3.5,2.87Z"/>
            <path class="cls-5" d="M29.36,37.69c.63,1.9,1.96,5.21.21,5.79-1.76.59-3.65-.15-5.34-3.83-.84-1.82-.12-4.25,1.63-4.83s2.87.97,3.5,2.87Z"/>
            <path class="cls-5" d="M50.55,29.97c.45,10.07-3.65,21.95-11.78,21.95s-11.96-12.42-11.57-22.22c.36-9.02,5.82-13.6,11.97-13.49,6.07.11,11,5.04,11.39,13.76Z"/>
            <path class="cls-2" d="M36.55,45.04s1.97,1.55,4.66,0"/>
            <g>
              <path d="M32.62,37.26c0,.7.48,1.27,1.07,1.27s1.07-.57,1.07-1.27-.48-1.27-1.07-1.27-1.07.57-1.07,1.27Z"/>
              <path d="M43,37.26c0,.7.48,1.27,1.07,1.27s1.07-.57,1.07-1.27-.48-1.27-1.07-1.27-1.07.57-1.07,1.27Z"/>
            </g>
            <g>
              <path class="cls-2" d="M31.2,34.69s1.92-1.94,4.23-.8"/>
              <path class="cls-2" d="M46.55,34.69s-1.92-1.94-4.23-.8"/>
            </g>
            <line class="cls-2" x1="38.88" y1="41.6" x2="38.88" y2="42.24"/>
          </g>
          <path class="cls-2" d="M48.44,43.48s2.01,1.94.63,3.8"/>
          <g>
            <path class="cls-6" d="M33.31,16.41c-10.09,4.21-5.91,19.28-5.91,19.28,2.73-3.69,4.15-7.29,7.36-13.54,1.08,4.34,6.65,9.93,16.03,12.34,0,0,3.39-12.09-5.45-17.36-3.62-2.16-8.15-2.34-12.03-.71Z"/>
            <path class="cls-2" d="M46.58,24.32s4.05,3.85,4.05,9.3"/>
            <path class="cls-2" d="M28.62,26.54s-.6.66-.6,3.01"/>
            <path class="cls-2" d="M43.86,27.24s.72,1.4,2.36,2.4"/>
          </g>
        </g>
      </g>
    </g>
  </g>
</svg>