<?xml version="1.0" encoding="UTF-8"?>
<svg id="_レイヤー_2" data-name="レイヤー 2" xmlns="http://www.w3.org/2000/svg" xmlns:xlink="http://www.w3.org/1999/xlink" viewBox="0 0 76.67 122.29">
  <defs>
    <style>
      .cls-1, .cls-2 {
        fill: none;
      }

      .cls-3, .cls-4 {
        fill: #bdad87;
      }

      .cls-4, .cls-5, .cls-6, .cls-2, .cls-7 {
        stroke: #000;
        stroke-linecap: round;
        stroke-linejoin: round;
        stroke-width: .75px;
      }

      .cls-5, .cls-8 {
        fill: #b3dff5;
      }

      .cls-6 {
        fill: #f5ef87;
      }

      .cls-7, .cls-9 {
        fill: #fef1e6;
      }

      .cls-10 {
        clip-path: url(#clippath);
      }
    </style>
    <clipPath id="clippath">
      <rect class="cls-1" width="76.67" height="107.5"/>
    </clipPath>
  </defs>
  <g id="_レイヤー_1-2" data-name="レイヤー 1">
    <g class="cls-10">
      <g>
        <g>
          <path class="cls-7" d="M55.48,63.06s8.93,2.31,9.92,9.3c0,0,.41,2.35.55,17.09.16,17.34,2.7,30.67,2.7,30.67l-8.44.53-3.75-37.53-.99-20.07Z"/>
          <path class="cls-5" d="M58,87.33l1.58-24.87s8.86,3.48,9.92,6.83c0,0-1.78,1.69-4.85,8.15-3.33,7-6.66,9.89-6.66,9.89Z"/>
          <path class="cls-7" d="M24.44,63.06s-8.93,2.31-9.92,9.3c0,0-.41,2.35-.55,17.09-.16,17.34-2.7,30.67-2.7,30.67l8.44.53,3.75-37.53.99-20.07Z"/>
          <path class="cls-5" d="M20.34,62.46s3.3-1.77,6.79-3.1c2.71-1.04,5.74-1.7,6.12-1.8,1.55-.41,12.08-.16,13.63.14.45.08,3.68.53,6.78,1.73,2.97,1.14,5.82,3.04,5.82,3.04l-2.19,34.51,1.26,22.48c-6.61,3.29-30.66,3.29-37.28,0l1.26-22.59-2.19-34.4Z"/>
          <g>
            <path class="cls-7" d="M50.7,61.15c0,2.25-4.49,5.74-10.2,5.74s-10.47-3.49-10.47-5.74,4.63-4.08,10.33-4.08,10.33,1.83,10.33,4.08Z"/>
            <path class="cls-7" d="M46.73,61.43c-2.07-6.23-1.6-15.21-1.6-15.21h-9.85s.73,8.55-1.49,15.21c0,0,3.02,2.7,7.01,2.66,3.99-.03,5.93-2.66,5.93-2.66Z"/>
            <path class="cls-9" d="M48.13,61.88c0,1.57-3.53,2.83-7.88,2.83s-7.88-1.27-7.88-2.83,3.63.1,7.98.1,7.78-1.67,7.78-.1Z"/>
          </g>
          <path class="cls-5" d="M21.92,87.33l-1.58-24.87s-8.86,3.48-9.92,6.83c0,0,1.78,1.69,4.85,8.15,3.33,7,6.66,9.89,6.66,9.89Z"/>
          <path class="cls-8" d="M19.65,63.16c0,.21-.64,5.07-.25,10.16.47,6.23,1.99,12.89,1.99,12.89,0,0,2.19,2.15,2.19,2.05,0-.2-1.71-26.15-1.71-26.15,0,0-.68.28-1.23.57-.55.29-.99.48-.99.48Z"/>
          <path class="cls-8" d="M60.33,63.16c0,.21.64,5.07.25,10.16-.47,6.23-1.99,12.89-1.99,12.89,0,0-2.19,2.15-2.19,2.05,0-.2,1.71-26.15,1.71-26.15,0,0,.68.28,1.23.57.55.29.99.48.99.48Z"/>
        </g>
        <g>
          <path class="cls-3" d="M31.72,43.49l-4.13-16.81s-3.28,6.18-3.3,15.25c0,4.64,2.09,10.29,3.3,15.76.3,1.38-2.65,4.76-4.29,5.92,0,0,.7.79,2.95,0l.61,2.06s2.46-1.63,4.88-4.67c3.31-3.29,4.98-11.8-.02-17.51Z"/>
          <path class="cls-4" d="M49.13,40.72l1.87-17.96s4.99,5.34,4.63,16.39c-.15,4.64-.75,9.03-1.61,14.75-.21,1.4.96,5.77,2.6,6.94,0,0,.26.76-1.99-.03l-.15.95s-3.88-.49-6.29-3.54c-3.31-3.29-4.06-11.8.94-17.51Z"/>
          <g>
            <path class="cls-7" d="M49.66,39.25c-.63,1.9-1.96,5.21-.21,5.79,1.76.58,3.65-.15,5.34-3.83.84-1.82.12-4.25-1.63-4.83-1.76-.59-2.87.97-3.5,2.87Z"/>
            <path class="cls-7" d="M28.47,31.54c-.45,10.07,3.65,21.95,11.78,21.95s11.96-12.42,11.57-22.22c-.36-9.02-5.82-13.6-11.97-13.49-6.07.11-11,5.04-11.39,13.76Z"/>
            <path class="cls-2" d="M42.34,46.46s-2.08,1.94-4.01,0"/>
            <g>
              <path d="M46.4,38.82c0,.7-.48,1.27-1.07,1.27s-1.07-.57-1.07-1.27.48-1.27,1.07-1.27,1.07.57,1.07,1.27Z"/>
              <path d="M36.02,38.82c0,.7-.48,1.27-1.07,1.27s-1.07-.57-1.07-1.27.48-1.27,1.07-1.27,1.07.57,1.07,1.27Z"/>
            </g>
            <path class="cls-2" d="M32.43,36.51s2.19-1.64,4.3-.16"/>
            <path class="cls-2" d="M47.96,36.51s-2.19-1.64-4.3-.16"/>
            <line class="cls-2" x1="40.14" y1="43.17" x2="40.14" y2="43.81"/>
          </g>
          <g>
            <path class="cls-3" d="M45.82,17.97c7.78,3.25,7.38,13.03,6.54,17.12-.25,1.21-1.05,1.53-1.05,1.53-2.73-3.69-3.73-6.66-6.93-12.91-1.08,4.34-6.65,9.93-16.03,12.34,0,0-5.04-9.38,5.45-17.36,3.35-2.55,8.15-2.34,12.03-.71Z"/>
            <path class="cls-2" d="M51.72,28.81s1.19,1.69,1.4,5.17"/>
            <path class="cls-2" d="M44.64,23.4s-2.45,9.88-16.6,12.72"/>
            <path class="cls-2" d="M28.31,29.76s-1.9,2.17-1.63,6.47"/>
            <path class="cls-2" d="M35.08,28.81s-.72,1.4-2.36,2.41"/>
            <path class="cls-2" d="M29.32,23.4c.93-1.79,2.34-3.45,4.46-4.71,3.62-2.16,8.15-2.34,12.03-.71,2.52,1.05,5.09,4.03,6.11,6.03"/>
          </g>
          <path class="cls-2" d="M28.03,36.12s-2.77,9.08,2.63,17.95"/>
          <path class="cls-2" d="M30.41,21.53s-9.97,13.65-4.46,30.98c1,3.13,3.37,7.53-2.65,11.1"/>
          <path class="cls-2" d="M34.96,51.5s.26,7.82-5.05,11.56"/>
          <path class="cls-2" d="M28.67,61.52s-.2.85-2.91,2.82"/>
          <path class="cls-2" d="M44.37,24.18s2.76,7.47,6.93,12.07"/>
          <path class="cls-2" d="M51.31,55.93s.64,2.7,2.57,3.91"/>
          <path class="cls-6" d="M52.25,46.17c0,1.64-.42,2.97-.94,2.97s-.94-1.33-.94-2.97.42-2.97.94-2.97.94,1.33.94,2.97Z"/>
        </g>
      </g>
    </g>
  </g>
</svg>