<svg width="87" height="114" viewBox="0 0 87 114" fill="none" xmlns="http://www.w3.org/2000/svg">
<mask id="mask0_308_1092" style="mask-type:alpha" maskUnits="userSpaceOnUse" x="0" y="0" width="87" height="114">
<rect x="0.164062" y="0.300781" width="86" height="113" fill="#D9D9D9"/>
</mask>
<g mask="url(#mask0_308_1092)">
<path d="M60.5632 39.3037H25.6787V64.3632H60.5632V39.3037Z" fill="#575C5F" stroke="black" stroke-width="0.765152" stroke-linecap="round" stroke-linejoin="round"/>
<path d="M73.6464 146.028L84.1976 145.695L79.133 92.3945L67.0537 93.7836L73.6464 146.028Z" fill="#FEF1E6" stroke="black" stroke-width="0.765152" stroke-linecap="round" stroke-linejoin="round"/>
<path d="M65.1035 88.1448L69.6733 63.9604C69.6733 63.9604 79.3076 66.9193 80.0062 77.1153C80.6029 86.0195 83.3244 98.077 84.3577 103.467C85.4492 103.939 86.2059 104.856 86.1623 105.912C86.1041 107.384 84.5469 108.537 82.6986 108.481C80.9231 108.426 79.4386 106.092 79.4386 106.231C79.3804 107.704 77.9396 108.856 76.2369 108.801C74.5341 108.745 73.2098 107.509 73.268 106.037C73.268 105.981 73.268 105.981 73.268 106.037C73.2098 107.509 71.6525 108.662 69.8043 108.606C67.956 108.551 66.5006 107.301 66.5734 105.828C66.6025 105.161 66.6898 104.147 67.2138 103.703L65.1181 88.1726L65.1035 88.1448Z" fill="#8C7C97"/>
<path d="M73.268 106.037C73.2098 107.509 74.5341 108.745 76.2369 108.801C77.9396 108.856 79.3804 107.704 79.4386 106.231C79.4386 106.092 80.9231 108.426 82.6986 108.481C84.5469 108.537 86.1041 107.384 86.1623 105.912C86.2059 104.856 85.4492 103.939 84.3577 103.467C83.3244 98.077 80.6029 86.0195 80.0062 77.1153C79.3076 66.9193 69.6733 63.9604 69.6733 63.9604L65.1035 88.1448L65.1181 88.1726L67.2138 103.703C66.6898 104.147 66.6025 105.161 66.5734 105.828C66.5006 107.301 67.956 108.551 69.8043 108.606C71.6525 108.662 73.2098 107.509 73.268 106.037ZM73.268 106.037C73.268 105.981 73.268 105.981 73.268 106.037Z" stroke="black" stroke-width="0.765152" stroke-linecap="round" stroke-linejoin="round"/>
<path d="M12.682 146.028L2.11621 145.695L7.18079 92.3945L19.2747 93.7836L12.682 146.028Z" fill="#FEF1E6" stroke="black" stroke-width="0.765152" stroke-linecap="round" stroke-linejoin="round"/>
<path d="M21.2246 88.1448L16.6549 63.9604C16.6549 63.9604 7.02051 66.9193 6.32195 77.1153C5.72526 86.0195 3.00377 98.077 1.97048 103.467C0.878975 103.939 0.122198 104.856 0.165858 105.912C0.224072 107.384 1.78129 108.537 3.62957 108.481C5.40508 108.426 6.88953 106.092 6.88953 106.231C6.94774 107.704 8.38853 108.856 10.0913 108.801C11.794 108.745 13.1184 107.509 13.0602 106.037C13.0602 105.981 13.0602 105.981 13.0602 106.037C13.1184 107.509 14.6756 108.662 16.5239 108.606C18.3722 108.551 19.8275 107.301 19.7547 105.828C19.7256 105.161 19.6383 104.147 19.1144 103.703L21.2101 88.1726L21.2246 88.1448Z" fill="#8C7C97"/>
<path d="M13.0602 106.037C13.1184 107.509 11.794 108.745 10.0913 108.801C8.38853 108.856 6.94774 107.704 6.88953 106.231C6.88953 106.092 5.40508 108.426 3.62957 108.481C1.78129 108.537 0.224072 107.384 0.165858 105.912C0.122198 104.856 0.878975 103.939 1.97048 103.467C3.00377 98.077 5.72526 86.0195 6.32195 77.1153C7.02051 66.9193 16.6549 63.9604 16.6549 63.9604L21.2246 88.1448L21.2101 88.1726L19.1144 103.703C19.6383 104.147 19.7256 105.161 19.7547 105.828C19.8275 107.301 18.3722 108.551 16.5239 108.606C14.6756 108.662 13.1184 107.509 13.0602 106.037ZM13.0602 106.037C13.0602 105.981 13.0602 105.981 13.0602 106.037Z" stroke="black" stroke-width="0.765152" stroke-linecap="round" stroke-linejoin="round"/>
<path d="M71.274 64.6831C71.274 64.6831 68.4215 62.4327 64.0701 60.7797C59.5149 59.0572 54.7705 58.3904 54.1156 58.2793C44.8159 56.7512 40.61 56.9596 32.1399 58.2793C31.485 58.3765 26.7406 59.0572 22.1854 60.7797C17.8194 62.4327 14.9814 64.6831 14.9814 64.6831L19.5949 115.024L15.0106 147.516C19.9733 149.947 31.6305 151.113 43.1423 151.058C54.654 151.113 66.3113 149.947 71.274 147.516L66.6897 115.024L71.3031 64.6831H71.274Z" fill="#8C7C97" stroke="black" stroke-width="0.765152" stroke-linecap="round" stroke-linejoin="round"/>
<path d="M43.1135 72.3787C50.0991 72.3787 57.1575 72.976 60.2137 73.2677C61.1306 73.3511 61.9456 72.7816 62.1493 71.9203L64.3323 62.4605C63.8812 61.6965 63.6047 61.2103 63.139 60.4463C58.8894 58.9738 54.7271 58.3904 54.1013 58.2793C44.8017 56.7512 40.5957 56.9596 32.1257 58.2793C31.5144 58.3765 27.3376 58.9599 23.088 60.4463C22.6368 61.2103 22.3603 61.6965 21.9092 62.4605L24.0922 71.9203C24.2959 72.7816 25.1109 73.3511 26.0278 73.2677C29.084 72.976 36.1424 72.3787 43.128 72.3787H43.1135Z" fill="#FEF1E6" stroke="black" stroke-width="0.765152" stroke-linecap="round" stroke-linejoin="round"/>
<path d="M27.9053 68.6978H39.1114L40.4794 69.4062" stroke="black" stroke-width="0.581515" stroke-linecap="round" stroke-linejoin="round"/>
<path d="M58.6706 68.6978H47.4354L46.0674 69.4062" stroke="black" stroke-width="0.581515" stroke-linecap="round" stroke-linejoin="round"/>
<path d="M52.3544 62.1412C49.3127 53.1398 50.0113 40.1655 50.0113 40.1655H35.5452C35.5452 40.1655 36.6076 52.5147 33.3477 62.1412C33.3477 62.1412 37.7864 66.0307 43.6515 65.9891C49.5165 65.9474 52.3544 62.1412 52.3544 62.1412Z" fill="#FEF1E6" stroke="black" stroke-width="0.765152" stroke-linecap="round" stroke-linejoin="round"/>
<path d="M54.4065 62.7939C54.4065 65.0581 49.2255 66.8917 42.8366 66.8917C36.4476 66.8917 31.2666 65.0581 31.2666 62.7939C31.2666 60.5296 36.6077 62.9467 42.9966 62.9467C49.3856 62.9467 54.4211 60.5296 54.4211 62.7939H54.4065Z" fill="#FEF1E6"/>
<path d="M18.8965 94.1185C18.3435 81.422 17.7759 63.6831 17.7759 63.6831C17.7759 63.6831 16.9027 64.1415 16.1023 64.6138C15.2873 65.0861 14.2686 65.7112 14.2686 65.7112C14.2686 66.4752 14.676 95.0492 14.676 95.0492C14.676 95.0492 15.7384 94.0351 16.83 94.0629C17.9215 94.0907 18.8965 94.1185 18.8965 94.1185Z" fill="#8C7C97"/>
<path d="M67.5771 94.1185C68.1302 81.422 68.6978 63.6831 68.6978 63.6831C68.6978 63.6831 69.571 64.1415 70.3714 64.6138C71.1864 65.0861 72.2051 65.7112 72.2051 65.7112C72.2051 66.4752 71.7976 95.0492 71.7976 95.0492C71.7976 95.0492 70.7352 94.0351 69.6437 94.0629C68.5522 94.0907 67.5771 94.1185 67.5771 94.1185Z" fill="#8C7C97"/>
<path d="M57.129 31.9413C56.2122 34.5806 54.2765 39.1786 56.8234 39.9843C59.3702 40.79 62.1354 39.7759 64.5949 34.664C65.8174 32.1358 64.7696 28.7603 62.2227 27.9546C59.6613 27.1489 58.0459 29.302 57.129 31.9413Z" fill="#FEF1E6" stroke="black" stroke-width="0.765152" stroke-linecap="round" stroke-linejoin="round"/>
<path d="M29.0695 31.9413C29.9864 34.5806 31.922 39.1786 29.3752 39.9843C26.8138 40.79 24.0632 39.7759 21.6036 34.664C20.3812 32.1358 21.429 28.7603 23.9758 27.9546C26.5227 27.1489 28.1527 29.302 29.0695 31.9413Z" fill="#FEF1E6" stroke="black" stroke-width="0.765152" stroke-linecap="round" stroke-linejoin="round"/>
<path d="M59.8946 21.2172C60.5495 35.2055 54.5826 51.7081 42.7507 51.7081C30.9187 51.7081 25.3448 34.4554 25.9124 20.8421C26.4363 8.31235 33.9604 3.01984 42.9107 3.17264C51.7447 3.32545 59.327 9.10414 59.8946 21.2172Z" fill="#FEF1E6" stroke="black" stroke-width="0.765152" stroke-linecap="round" stroke-linejoin="round"/>
<path d="M40.4072 42.1514C40.4072 42.1514 42.7067 43.4988 45.4282 42.1514" stroke="black" stroke-width="0.765152" stroke-linecap="round" stroke-linejoin="round"/>
<path d="M33.8145 31.3296C33.8145 32.302 34.513 33.0938 35.3717 33.0938C36.2303 33.0938 36.9289 32.302 36.9289 31.3296C36.9289 30.3572 36.2303 29.5654 35.3717 29.5654C34.513 29.5654 33.8145 30.3572 33.8145 31.3296Z" fill="black"/>
<path d="M48.9062 31.3296C48.9062 32.302 49.6048 33.0938 50.4635 33.0938C51.3221 33.0938 52.0207 32.302 52.0207 31.3296C52.0207 30.3572 51.3221 29.5654 50.4635 29.5654C49.6048 29.5654 48.9062 30.3572 48.9062 31.3296Z" fill="black"/>
<path d="M31.3838 28.0238C31.3838 28.0238 34.2654 25.1623 37.8309 27.3987" stroke="black" stroke-width="0.765152" stroke-linecap="round" stroke-linejoin="round"/>
<path d="M54.5243 28.0238C54.5243 28.0238 51.6427 25.1623 48.0771 27.3987" stroke="black" stroke-width="0.765152" stroke-linecap="round" stroke-linejoin="round"/>
<path d="M42.9102 36.9282V37.8173" stroke="black" stroke-width="0.765152" stroke-linecap="round" stroke-linejoin="round"/>
<path d="M42.9238 3.13113C39.722 1.32529 35.6762 2.76996 32.489 4.56191C26.9296 7.68741 23.917 12.966 22.3452 19.0642C20.4242 26.5376 20.0749 34.9834 21.312 41.5956C21.996 47.3048 23.2912 62.2238 18.3867 65.5855C18.3867 65.5855 22.4908 67.4747 26.0127 59.2234C29.6219 70.7252 32.9401 71.0725 32.9401 71.0725C32.9401 71.0725 32.3725 64.2797 31.9214 60.8208C31.4702 57.362 30.3351 50.7915 30.3351 50.7915C28.1957 39.9842 28.6178 33.3304 29.6511 23.3149C30.6698 13.4939 42.7637 9.79886 42.7637 9.79886C43.3021 7.59017 42.9238 3.13113 42.9238 3.13113Z" fill="#575C5F" stroke="black" stroke-width="0.765152" stroke-linecap="round" stroke-linejoin="round"/>
<path d="M42.9245 3.0899C45.9952 1.32573 49.8373 2.85375 52.9954 4.52068C58.6713 7.54894 62.0185 12.9248 63.5758 19.1897C65.4095 26.6214 65.555 34.9977 64.3471 41.5543C63.6631 47.2636 62.8044 59.0293 63.8086 63.3634C63.8086 63.3634 60.927 64.0579 59.7482 59.1683C56.2117 70.6701 52.9663 71.0174 52.9663 71.0174C52.9663 71.0174 53.5194 64.2246 53.956 60.7657C54.3926 57.3068 55.5132 50.7364 55.5132 50.7364C57.6234 39.9291 57.1868 33.2752 56.1826 23.2598C55.1784 13.4388 42.9681 9.72984 42.9681 9.72984C42.4442 7.52116 42.9536 3.07601 42.9536 3.07601L42.9245 3.0899Z" fill="#575C5F" stroke="black" stroke-width="0.765152" stroke-linecap="round" stroke-linejoin="round"/>
<path d="M62.2079 35.9136C62.2079 35.9136 62.6445 42.9841 60.5488 52.6246" stroke="black" stroke-width="0.765152" stroke-linecap="round" stroke-linejoin="round"/>
<path d="M25.9546 58.5282C25.9546 58.5282 26.5513 54.9026 25.4307 49.2212" stroke="black" stroke-width="0.765152" stroke-linecap="round" stroke-linejoin="round"/>
<path d="M37.0742 5.58994C37.0742 5.58994 39.883 4.52033 42.7064 6.15948" stroke="black" stroke-width="0.765152" stroke-linecap="round" stroke-linejoin="round"/>
<path d="M42.7354 6.52066C43.0846 6.29841 45.2385 5.2149 47.407 6.21506" stroke="black" stroke-width="0.765152" stroke-linecap="round" stroke-linejoin="round"/>
<path d="M60.0388 55.4731C60.0388 55.4731 59.4566 56.6678 59.7768 58.557" stroke="black" stroke-width="0.765152" stroke-linecap="round" stroke-linejoin="round"/>
</g>
</svg>
